<?xml version="1.0" encoding="utf-8"?>
<!-- Generator: Adobe Illustrator 24.2.1, SVG Export Plug-In . SVG Version: 6.00 Build 0)  -->
<svg version="1.1" id="Ebene_1" xmlns="http://www.w3.org/2000/svg" xmlns:xlink="http://www.w3.org/1999/xlink" x="0px" y="0px"
	 viewBox="0 0 16 16" style="enable-background:new 0 0 16 16;" xml:space="preserve">
<style type="text/css">
	.st0{fill-rule:evenodd;clip-rule:evenodd;fill:#FFFFFF;}
</style>
<path class="st0" d="M8,10c0.3,0,0.5-0.2,0.5-0.5V3.7l2.1,2.1c0.2,0.2,0.5,0.2,0.7,0s0.2-0.5,0-0.7l-3-3C8.2,2,7.8,2,7.6,2.1
	c0,0,0,0,0,0l-3,3c-0.2,0.2-0.2,0.5,0,0.7s0.5,0.2,0.7,0l2.1-2.1v5.8C7.5,9.8,7.7,10,8,10z M1,12.5C1,12.2,1.2,12,1.5,12h13
	c0.3,0,0.5,0.2,0.5,0.5S14.8,13,14.5,13h-13C1.2,13,1,12.8,1,12.5z"/>
</svg>
