<?xml version="1.0" encoding="utf-8"?>
<!-- Generator: Adobe Illustrator 24.2.1, SVG Export Plug-In . SVG Version: 6.00 Build 0)  -->
<svg version="1.1" id="Ebene_1" xmlns="http://www.w3.org/2000/svg" xmlns:xlink="http://www.w3.org/1999/xlink" x="0px" y="0px"
	 viewBox="0 0 16 16" style="enable-background:new 0 0 16 16;" xml:space="preserve">
<style type="text/css">
	.st0{fill-rule:evenodd;clip-rule:evenodd;fill:#FFFFFF;}
</style>
<path class="st0" d="M8,10.5c0.3,0,0.5-0.2,0.5-0.5V4.2l2.1,2.1c0.2,0.2,0.5,0.2,0.7,0s0.2-0.5,0-0.7l-3-3c-0.1-0.1-0.5-0.1-0.7,0
	l0,0l-3,3c-0.2,0.2-0.2,0.5,0,0.7s0.5,0.2,0.7,0l2.1-2.1V10C7.5,10.3,7.7,10.5,8,10.5z M1,13c0-0.3,0.2-0.5,0.5-0.5h13
	c0.3,0,0.5,0.2,0.5,0.5s-0.2,0.5-0.5,0.5h-13C1.2,13.5,1,13.3,1,13z"/>
</svg>
