<?xml version="1.0" encoding="utf-8"?>
<!-- Generator: Adobe Illustrator 25.1.0, SVG Export Plug-In . SVG Version: 6.00 Build 0)  -->
<svg version="1.1" id="Ebene_1" xmlns="http://www.w3.org/2000/svg" xmlns:xlink="http://www.w3.org/1999/xlink" x="0px" y="0px"
	 viewBox="0 0 500 500" style="enable-background:new 0 0 500 500;" xml:space="preserve">
<style type="text/css">
	.st0{fill:none;}
	.st1{fill:#353535;}
</style>
<rect x="42.4" y="240.4" class="st0" width="415.3" height="73.5"/>
<g>
	<path class="st1" d="M201.4,271.7c-5.1,0-9.4,1.9-13,5.6c-3.6,3.7-5.5,9.2-5.5,16.4c0,7.2,1.9,12.6,5.6,16.4
		c3.7,3.8,8.1,5.7,13.2,5.7c5.1,0,9.4-1.9,13-5.7c3.6-3.8,5.4-9.3,5.4-16.4c0-7.2-1.8-12.6-5.5-16.4
		C210.8,273.5,206.5,271.7,201.4,271.7z"/>
	<path class="st1" d="M84,247.3H72v69.8h12c10.3,0,18.4-3.2,24.3-9.5c5.9-6.3,8.8-14.8,8.8-25.4c0-10.6-3-19.1-8.8-25.4
		C102.5,250.5,94.3,247.3,84,247.3z"/>
	<path class="st1" d="M443.4,178.9h-12v-58c0-0.4-0.1-0.7-0.1-1.1c0-2.3-0.8-4.6-2.3-6.3L332.6,3.4c0,0-0.1,0-0.1-0.1
		c-0.6-0.6-1.2-1.2-2-1.6c-0.2-0.1-0.4-0.3-0.6-0.4c-0.6-0.3-1.3-0.6-1.9-0.8c-0.2-0.1-0.3-0.1-0.5-0.2c-0.7-0.2-1.5-0.3-2.3-0.3
		H88.2C77.4,0,68.6,8.8,68.6,19.6v159.3h-12c-15.5,0-28,12.5-28,28v145.7c0,15.5,12.6,28,28,28h12v99.8c0,10.8,8.8,19.6,19.6,19.6
		h323.5c10.8,0,19.6-8.8,19.6-19.6v-99.8h12c15.5,0,28-12.5,28-28V206.9C471.4,191.4,458.9,178.9,443.4,178.9z M88.2,19.6h227.1
		v100.3c0,5.4,4.4,9.8,9.8,9.8h86.6v49.2H88.2V19.6z M355.6,337.7h-35.9l-27.8-35.2v35.2h-27V220.8h27v65.6l27.3-36.8h36.3l-37.8,45
		L355.6,337.7z M247.6,293.5c0,13.6-4.4,24.5-13.1,32.9c-8.7,8.3-19.6,12.5-32.7,12.5c-13.1,0-24-4.2-32.9-12.5
		c-8.9-8.3-13.4-19.3-13.4-32.9c0-13.6,4.4-24.5,13.3-32.6c8.8-8.2,19.8-12.2,32.9-12.2c13.1,0,24,4.1,32.8,12.2
		C243.2,269,247.6,279.9,247.6,293.5z M84,337.7H45V226.8h39c17.7,0,32.2,5.1,43.6,15.4s17.1,23.6,17.1,40
		c0,16.4-5.7,29.7-17.1,40.1C116.3,332.5,101.7,337.7,84,337.7z M411.7,475.1H88.2v-94.4h323.5V475.1z M455,337.7h-27v-13
		c-5.6,9.3-14.5,13.9-26.7,13.9c-10.1,0-18.3-3.4-24.6-10.1c-6.3-6.7-9.4-15.9-9.4-27.5v-51.5h26.9v47.9c0,5.7,1.5,10.1,4.5,13.2
		c3,3.1,7.1,4.7,12.4,4.7c5.3,0,9.4-1.6,12.4-4.7c3-3.1,4.5-7.5,4.5-13.2v-47.9h27V337.7z"/>
</g>
</svg>
