<?xml version="1.0" encoding="utf-8"?>
<!-- Generator: Adobe Illustrator 24.2.1, SVG Export Plug-In . SVG Version: 6.00 Build 0)  -->
<svg version="1.1" id="Ebene_1" xmlns="http://www.w3.org/2000/svg" xmlns:xlink="http://www.w3.org/1999/xlink" x="0px" y="0px"
	 viewBox="0 0 2745 1544.06" style="enable-background:new 0 0 2745 1544.06;" xml:space="preserve">
<style type="text/css">
	.st0{fill:#FFFFFF;}
	.st1{fill:#333333;}
</style>
<rect x="0" y="0.03" class="st0" width="2745" height="1544"/>
<g>
	<g>
		<rect x="-653.5" y="1309.2" class="st0" width="4052" height="659"/>
		<path class="st1" d="M3383.5,1324.2v629h-4022v-629H3383.5 M3413.5,1294.2h-4082v689h4082V1294.2L3413.5,1294.2z"/>
	</g>
	<g>
		<g>
			<rect x="1469.5" y="60.36" class="st0" width="674" height="1428.5"/>
			<path d="M2136,67.86v1413.5h-659V67.86H2136 M2151,52.86h-689v1443.5h689V52.86L2151,52.86z"/>
		</g>
		<g>
			<rect x="719.5" y="809.7" width="317.13" height="680.82"/>
			<path d="M1029.12,817.2v665.82H727V817.2H1029.12 M1044.12,802.2H712v695.82h332.12V802.2L1044.12,802.2z"/>
		</g>
	</g>
</g>
</svg>
