<?xml version="1.0" encoding="utf-8"?>
<!-- Generator: Adobe Illustrator 25.1.0, SVG Export Plug-In . SVG Version: 6.00 Build 0)  -->
<svg version="1.1"
	 id="svg2" xmlns:cc="http://creativecommons.org/ns#" xmlns:dc="http://purl.org/dc/elements/1.1/" xmlns:inkscape="http://www.inkscape.org/namespaces/inkscape" xmlns:rdf="http://www.w3.org/1999/02/22-rdf-syntax-ns#" xmlns:sodipodi="http://sodipodi.sourceforge.net/DTD/sodipodi-0.dtd" xmlns:svg="http://www.w3.org/2000/svg"
	 xmlns="http://www.w3.org/2000/svg" xmlns:xlink="http://www.w3.org/1999/xlink" x="0px" y="0px" viewBox="0 0 5442.5 3061.4"
	 style="enable-background:new 0 0 5442.5 3061.4;" xml:space="preserve">
<style type="text/css">
	.st0{fill:#FFFFFF;}
	.st1{fill:#1A1A1A;}
	.st2{fill:#E6E6E6;}
	.st3{fill:#4D4D4D;}
	.st4{fill:#B3B3B3;}
</style>
<rect class="st0" width="5442.5" height="3061.4"/>
<sodipodi:namedview  bordercolor="#666666" borderopacity="1.0" guidetolerance="5" id="base" inkscape:current-layer="layer1" inkscape:cx="454.97262" inkscape:cy="526.1811" inkscape:document-units="px" inkscape:guide-bbox="true" inkscape:pageopacity="0.0" inkscape:pageshadow="2" inkscape:window-height="851" inkscape:window-maximized="1" inkscape:window-width="1440" inkscape:window-x="0" inkscape:window-y="1" inkscape:zoom="0.67372241" pagecolor="#ffffff" showgrid="false" showguides="true">
	</sodipodi:namedview>
<g id="layer1" inkscape:groupmode="layer" inkscape:label="Livello 1">
	<path id="path4239" class="st1" d="M2571.9,2871.5c-75.9-43.3-170.7-99.9-210.6-125.8l-72.6-47l-1.1-119.5
		c-0.6-65.7-4-159.3-7.6-208l-6.5-88.5l-152,87.4c-83.6,48.1-170.7,93.8-193.5,101.6c-41.3,14.1-42.2,13.8-117-30.6
		c-41.5-24.6-131.4-77.4-199.7-117.4l-124.3-72.7v-709.8V831.4l54.3-34.7c29.9-19.1,126.4-77,214.6-128.6l160.3-93.8l51.8,25.6
		c28.5,14.1,108.6,58,178.1,97.5c69.5,39.5,127.2,70.9,128.3,69.6c5.2-5.9,13.5-177.2,13.9-286.5l0.4-121.8l214.1-124.3l214.1-124.3
		l194.4,108.3C3383,481.2,3605,607,3774.3,707.4l181.3,107.6l-6.2,71.3c-3.4,39.2-6.6,150-7.1,246.2l-1,174.9l-113.3,64.2
		c-129.4,73.3-239.4,141.8-239.8,149.6c-0.4,6.7,122.1,81.7,182.4,111.6c25.1,12.5,74.3,41.4,109.3,64.3l63.6,41.6l-2.7,252.2
		l-2.7,252.2l-167.5,97c-92.1,53.4-222.3,128.9-289.3,167.9c-67,39-229.1,132.6-360.3,207.9c-131.2,75.4-275.7,159.3-321.1,186.6
		c-45.4,27.2-84.3,49.1-86.3,48.6C2711.6,2950.7,2647.8,2914.8,2571.9,2871.5L2571.9,2871.5z"/>
	<path id="path4237" class="st2" d="M2687.4,2681.9c4-127.5,2.4-194.7-5-206.5c-6-9.6-70.8-48.7-143.9-86.7
		c-73.2-38-145.1-77.6-159.9-87.8c-14.8-10.3-29.8-18.7-33.2-18.7s-5,89.7-3.5,199.3l2.8,199.3l162.4,94
		c89.3,51.7,165.1,94.4,168.4,95C2678.7,2870.4,2684.1,2785.8,2687.4,2681.9L2687.4,2681.9z"/>
	<path id="path4235" class="st3" d="M3037.9,2706.7c59.7-34.4,204.4-120.2,321.6-190.5c117.2-70.4,285.4-168.9,373.8-219l160.6-91
		l-2.9-200.5c-1.6-110.3-3.8-200.5-5-200.5c-1.2,0-85.5,48-187.4,106.6c-101.9,58.6-189,106.6-193.6,106.6c-4.6,0-8.9-177-9.5-393.3
		c-0.6-216.3-4-419.4-7.6-451.2l-6.5-57.9l-163.7,98.5l-163.7,98.5l-7.6,463.8l-7.6,463.8l-196.6,118.6l-196.6,118.6v195.7v195.7
		l92-50C2888,2791.7,2978.2,2741.1,3037.9,2706.7L3037.9,2706.7z"/>
	<path id="path4233" class="st3" d="M2024,2372.1c42.3-23.1,110.2-64.8,150.7-92.7l73.7-50.7l-149.5-84.9
		c-82.2-46.7-155.9-84.9-163.6-84.9c-11.6,0-13.5,31.1-10.4,177.6c2,97.8,7.8,177.6,12.9,177.6
		C1942.8,2414.1,1981.6,2395.2,2024,2372.1z"/>
	<path id="path4231" class="st2" d="M1872.6,2186.4c0-119.7,3.7-219.9,8.2-222.7c8-4.9,150.2,72.8,580.3,317.1
		c114.3,64.9,211.5,119.6,215.9,121.5c4.4,1.9,6.8-84.8,5.2-192.8l-2.8-196.2L2491.7,1905c-319.6-184.6-353.2-204.1-485.5-283
		l-128.5-76.7l-5.1-232.5l-5.1-232.5l-86.3-50c-47.4-27.5-120-69.9-161.1-94.3c-41.2-24.4-76.6-44.3-78.7-44.3
		c-6.4,0-1.7,1198.5,5.1,1272.4l6.4,69.7l152.1,85.1c83.7,46.8,155.6,85.1,159.9,85.1S1872.6,2306.1,1872.6,2186.4L1872.6,2186.4z"
		/>
	<path id="path4229" class="st3" d="M2956.5,2286.6l123.7-70.4l0.2-147.2c0.1-80.9,2.6-163.2,5.5-182.7
		c10.9-72.4-1.2-70.1-174.3,32.3l-161.1,95.4l-2.8,196l-2.8,196l43.9-24.5C2813,2368,2888.4,2325.3,2956.5,2286.6L2956.5,2286.6z"/>
	<path id="path4227" class="st4" d="M2887.9,1860.2c90.1-53.5,161.6-99.4,158.9-102.1c-12-12-202.1-119.2-270.6-152.5l-75.8-36.9
		l-40.9,23.3c-168.2,95.6-279.4,165.7-279.2,175.8c0.3,12.1,309.1,188.2,331.5,189.1C2718.6,1957.2,2797.8,1913.6,2887.9,1860.2z"/>
	<path id="path4225" class="st4" d="M3667,1869.4c54.1-31.7,120.1-69.3,146.5-83.7c26.5-14.4,48-28.5,47.9-31.2
		c-0.4-11.1-249.3-153.3-292.1-166.9c-21.5-6.8-22.2-4.7-22.2,73.3c0,92.8,11.3,266.1,17.3,266.1
		C3566.8,1927,3612.9,1901.1,3667,1869.4L3667,1869.4z"/>
	<path id="path4223" class="st2" d="M2278.6,1517.5v-196.3l-66.9-42.9c-91-58.4-267.6-157-272.6-152c-2.2,2.2-5.7,89.8-7.7,194.6
		l-3.7,190.6l101.9,62.9c84.2,52,236.8,138.1,246.5,139.1C2277.4,1713.7,2278.6,1625.5,2278.6,1517.5L2278.6,1517.5z"/>
	<path id="path4221" class="st3" d="M2583,1579.5l96.4-54.5l2.7-210.4l2.7-210.4l-33.2,16.8c-43.6,22-293.3,176.5-310.3,192
		c-10.5,9.5-11.7,52.3-6.1,206.3l7.2,194.3l72-39.8C2454.2,1651.9,2530,1609.4,2583,1579.5L2583,1579.5z"/>
	<path id="path4219" class="st2" d="M3078.1,1302.4c-13.6-12.2-320.2-187.5-328.1-187.5c-2.5,0-4.5,90.2-4.3,200.5l0.2,200.5
		l169.8,92.1l169.8,92.1l2.8-193C3090.3,1360.9,3087.8,1311.3,3078.1,1302.4L3078.1,1302.4z"/>
	<path id="path4217" class="st3" d="M3747.7,1358.3l144.6-85.2v-196v-196l-43.1,21.7c-23.7,11.9-98.9,54.3-167.1,94.1l-124,72.4
		l-0.3,201.6l-0.3,201.6l22.8-14.6C3592.8,1450,3668.2,1405.1,3747.7,1358.3L3747.7,1358.3z"/>
	<path id="path4215" class="st4" d="M2713.2,1020.5L3110.6,789l205.1,116.6c238.9,135.8,186.3,135.9,406.6-1.1l139.5-86.8
		l-154.8-88.1c-674.8-384.3-934.1-530.2-965.2-543.2l-36.2-15.1L2586,243.3c-65.8,39.7-137.2,85-158.7,100.7
		c-35.9,26.3-37.6,29.5-20.3,40.1c10.3,6.3,91.5,53.5,180.4,104.8c88.9,51.3,161.9,97.2,162.4,102c0.5,4.8-174.4,113.9-388.6,242.5
		c-260.5,156.4-384.8,236.4-375.5,241.6c7.6,4.3,82.4,47,166.1,94.9c83.7,47.9,154.9,85.9,158.2,84.6
		C2313.2,1253.1,2494.7,1147.8,2713.2,1020.5L2713.2,1020.5z"/>
	<path id="path4213" class="st4" d="M3195.8,1219.9c137.2-82.1,249.7-158.1,245-165.6c-4.5-7.3-88.1-58.4-263.5-161l-70.5-41.3
		l-36,21.9c-19.8,12-94.6,58-166.2,102.2l-130.2,80.3l33.8,20.8c83.2,51.2,308.7,178.9,316.6,179.4
		C3129.6,1256.9,3161.5,1240.3,3195.8,1219.9L3195.8,1219.9z"/>
	<path id="path4211" class="st4" d="M2095.5,926.7c47.7-29.6,101.8-65.2,120.3-79l33.6-25.1l-99.6-58.6
		c-54.8-32.2-132.4-73.8-172.5-92.3l-72.9-33.7l-54,32.3c-29.7,17.8-103.4,63.1-163.9,100.7c-107.9,67.1-109.5,68.7-86.3,83.4
		c13,8.2,87.3,51.6,165,96.4l141.4,81.5l51.1-25.9C1985.8,992.2,2047.8,956.3,2095.5,926.7L2095.5,926.7z"/>
	<path id="path3347" class="st2" d="M2519.9,673.6c74.1-43.5,133.5-80.1,131.9-81.4c-7-5.7-303.5-177.5-306.3-177.5
		c-10.1,0-15,124.2-9.4,236.1c6.5,128.5,6.7,129.4,27.8,115.7C2375.6,758.9,2445.8,717.1,2519.9,673.6L2519.9,673.6z"/>
</g>
</svg>
