<svg id="Ebene_2" data-name="Ebene 2" xmlns="http://www.w3.org/2000/svg" viewBox="0 0 512.44 368.88"><defs><style>.cls-1{fill:#b2ccce;}.cls-2{fill:#edf9f9;}.cls-3{fill:#cae9ed;}.cls-4{fill:#aaf2d0;}.cls-5{fill:#dfeff4;}.cls-6{fill:#f97d97;}.cls-7{fill:#f4b978;}.cls-8{fill:none;stroke:#c11010;}.cls-10,.cls-11,.cls-12,.cls-13,.cls-14,.cls-15,.cls-16,.cls-17,.cls-18,.cls-19,.cls-20,.cls-21,.cls-22,.cls-23,.cls-24,.cls-25,.cls-26,.cls-27,.cls-28,.cls-29,.cls-30,.cls-8,.cls-9{stroke-miterlimit:10;}.cls-9{fill:#c11818;}.cls-10,.cls-11,.cls-12,.cls-13,.cls-14,.cls-15,.cls-16,.cls-18,.cls-19,.cls-20,.cls-21,.cls-22,.cls-23,.cls-24,.cls-25,.cls-26,.cls-27,.cls-28,.cls-29,.cls-30,.cls-9{stroke:#000;}.cls-10,.cls-23{fill:#a2d0f9;}.cls-11,.cls-12,.cls-13,.cls-14,.cls-19{fill:#afaf2f;}.cls-12{stroke-width:1.5px;}.cls-13,.cls-20{stroke-width:0.75px;}.cls-14,.cls-15{stroke-width:0.44px;}.cls-15,.cls-16,.cls-17{fill:#aaa;}.cls-16{stroke-width:0.72px;}.cls-17{stroke:#d8d8d8;stroke-width:0.87px;}.cls-18{fill:#c1c1c1;stroke-width:0.25px;}.cls-19{stroke-width:0.31px;}.cls-20,.cls-21,.cls-22{fill:#ffabf9;}.cls-21{stroke-width:0.45px;}.cls-22{stroke-width:0.3px;}.cls-23{stroke-width:1.25px;}.cls-24{fill:#1625a8;}.cls-25{fill:#88e1e5;}.cls-25,.cls-26,.cls-27,.cls-28,.cls-29{stroke-width:0.5px;}.cls-26{fill:#90d0da;}.cls-27{fill:#91d1da;}.cls-28{fill:#b7b7b7;}.cls-29{fill:#c11111;}.cls-30{fill:#6b6b6b;}.cls-31{fill:#1945bf;}.cls-32{fill:#b7b6b6;}.cls-33{font-size:8px;font-family:Stellar-Regular, Stellar;}.cls-34{letter-spacing:-0.01em;}.cls-35,.cls-36{font-family:MyriadPro-Regular, Myriad Pro;}.cls-36{letter-spacing:-0.01em;}.cls-37{letter-spacing:-0.01em;}.cls-38{letter-spacing:-0.01em;}.cls-39{letter-spacing:0em;}.cls-40{font-size:10px;font-family:Stellar-Medium, Stellar;font-weight:500;}.cls-41{letter-spacing:-0.01em;}.cls-42{letter-spacing:-0.02em;}.cls-43{letter-spacing:-0.07em;}.cls-44{letter-spacing:-0.01em;}.cls-45{letter-spacing:-0.04em;}.cls-46{letter-spacing:-0.03em;}.cls-47{letter-spacing:-0.02em;}.cls-48{letter-spacing:0em;}.cls-49{letter-spacing:-0.03em;}.cls-50{letter-spacing:-0.02em;}.cls-51{letter-spacing:0em;}</style></defs><rect class="cls-1" x="328.61" y="257.89" width="124.33" height="110.81"/><rect class="cls-2" x="204.76" y="0.12" width="201.37" height="110.81"/><rect class="cls-3" x="409.39" width="44.15" height="110.81"/><path class="cls-3" d="M508.07,356v77.42a7.2,7.2,0,0,0,0,1.54.17.17,0,0,0,0,.07v31.79H391.33V356Z" transform="translate(-54.83 -223.81)"/><path class="cls-4" d="M387.48,355.37v77.42a6.1,6.1,0,0,0,0,1.54.17.17,0,0,0,0,.07v31.79H256.81V355.37Z" transform="translate(-54.83 -223.81)"/><path class="cls-5" d="M265.41,481.59V559a11.29,11.29,0,0,0,0,1.54.17.17,0,0,0,0,.07v31.79H194.89V481.59Z" transform="translate(-54.83 -223.81)"/><path class="cls-6" d="M258,224.7v76.8a7.1,7.1,0,0,0,0,1.53.17.17,0,0,0,0,.07v31.53H140.67V224.7Z" transform="translate(-54.83 -223.81)"/><path class="cls-7" d="M135.93,223.81v77.42a11.29,11.29,0,0,0,0,1.54.17.17,0,0,0,0,.07v31.79h-77V223.81Z" transform="translate(-54.83 -223.81)"/><path class="cls-4" d="M380.37,481.59V559a7.2,7.2,0,0,0,0,1.54.17.17,0,0,0,0,.07v31.79H267.78V481.59Z" transform="translate(-54.83 -223.81)"/><rect class="cls-3" x="3.76" y="257.49" width="134.22" height="110.81"/><rect class="cls-3" x="4.35" y="131.71" width="194.96" height="110.81"/><path class="cls-8" d="M57.19,565.37s10,6.74,12.88-5.11c0,0,.45-3.93-2.51-6.15s.81-5.33,2.37-5.26,6.44,1.48,2.14,6.82,1.49,13.18,6.23,13.18,9-3.48,8.37-7.48a10.35,10.35,0,0,0-2.6-5.85s-3-4.22,2.52-5.33c0,0,5.85,1.11,3,6.14s-4.37,11,5.63,13.41,8.51-29,19-29.11,9.63,10.44,6.15,13.11-.08,6.45,2,5.93,4.74-2.15,2.37-5.78-3.56-11,5.63-12.59c0,0,13.48,3,5.18,13.11,0,0-3.26,5.18,2.45,5.78,0,0,5.26-.6,2.74-5.86s-2.3-10.59,5.11-13.11,11,11,6,13c0,0-3.41,5.48,1.63,6.37s4.29-6.08,2.52-7-3.49-11.59,6.63-12.7c0,0,12.44,2.67,4.88,13.28,0,0-3.22,4.94,2.5,5.55,0,0,5,.23,2.28-5.55s1.06-13.67,6.5-13.72,11.72,6.66,5.72,13c0,0-3.88,5.17,2.39,5.89,0,0,4.45-.33,2.5-5.83s3.06-5.45,3.06-5.45,5.05.78,3.11,5.67,1.5,6.72,9.72,12.61,10.11,10.83,14.56,10.06,6.94-1.84,7.61-8-5.56-7.11-7.72-7.39-7.95-3.11-7.5-8,2.61-7.33,7.33-7.78,9.78.95,11.39.28,2.94-.72,2.94-3.72-.5-14,7.34-13.28,18.33.95,18.22,9.34-7.78,7.66-7.78,7.66-7.83,1.78-7.44,8.56,5.5,7.52,7.61,7,39.16-1.76,39.16-1.76l29.5.22-.88-16.39-6.34.23s-2.78,1.11-3.5,2.88-2.44,3.23-3.44,2.78-8.06-4.39-8.5-6.11-.56-17.61-.56-17.61,5.84-6.89,9.45-6.89,29.83-.39,29.83-.39,3.5.17,3.39,3.45-7.56,15.66-6.83,17.33,2.72,18.94,2.72,18.94.83,2.5,3.22,2.34,3.06-2.45,3.28-3.56,5.39-23.44,5.39-23.44,3.5-2.84,5.66,1.28.06,23.38,2.78,24.72,17.67,4.61,17.67,4.61,16.39-7.11,19-6.89,23.39-2,23.39-2,10.27,1.33,5.44,9.17c0,0-1.72,4.61,2.22,5.72s15.17-18,20-18.22a13.94,13.94,0,0,0,2.1-.34c6.93-1.58,23.12-8.05,25.29-7.55,2.45.55,13.22,5.66,15.72,5" transform="translate(-54.83 -223.81)"/><path class="cls-8" d="M445.93,551.22S469.67,560,471.44,564s9.12,14.22,15.67,13.28" transform="translate(-54.83 -223.81)"/><path class="cls-8" d="M508.07,430.68a5.69,5.69,0,0,0-.77,3.5,2,2,0,0,1,0,.24,1.75,1.75,0,0,0,0,.32.06.06,0,0,1,0,0,8.71,8.71,0,0,0,.69,2.18" transform="translate(-54.83 -223.81)"/><path class="cls-8" d="M508.08,423.79h0a5.09,5.09,0,0,0-1-.09c-4.92,0-2.55,4.71-2.55,4.71l2.07,2.67.18,1.41h0l.52,4.21s0,0,0,0l.19,1.45s-1.69,4.74-6.47,4.29c0,0-5.38,1.93-7.45-3.11-1.81-4.39-1.82-5.85-.43-8.31q.31-.54.72-1.17a11.21,11.21,0,0,0,1.52-3.18c.42-1.78-.42-3-3.89-3-5.33,0-2.37,5.92-2.37,5.92s4.15,7.11,1.78,10.37-7.11,4.15-7.11,4.15-8.09,0-7.45-7.39c.11-1.26.24-2.28.39-3.11,0,0,0,0,0,0a0,0,0,0,1,0,0,9.78,9.78,0,0,1,.62-2.35c.41-1,.81-1.07,1-1h0a.17.17,0,0,1,.09,0,6.8,6.8,0,0,0,.2-.68c0-.1.05-.21.08-.32.32-1.55.39-4.29-3.38-3.69a5.74,5.74,0,0,0-.68.15l-.17.06a2.14,2.14,0,0,0-1.73,1.73,0,0,0,0,1,0,0c-.24,1.72,1.55,3.9,1.55,3.9l0,0c.28.49,4.35,7.8-6.25,11.23,0,0-8.85.33-8.77-8.22,0,0,.33-4,3.14-6s-1.85-5.41-1.85-5.41-5.37-1.26-4.78,4c0,0,9.86,12.4-4.22,16,0,0-8.85-.26-8.37-8.44,0,0,.41-4,2.82-5.11s1-6.19-2.45-5.63-3.63,3.07-3.63,3.07,7.82,14.93-5.59,16.34c0,0-12.59-2.11-5.7-13.23,0,0,3.74-3.92-2.78-6.26,0,0-5.59,1.89-3.67,5.45s-3.37,6-3.37,6-7.41-.89-2.78-6.52,4.89-6.08.45-12.48S404.81,419,404.81,419a10.25,10.25,0,0,0,.6,9.59c3,4.78-2.3,6.26-2.3,6.26s-5.78-.81-2.74-5.85c0,0,8.78-8.52-4.93-14.34a12.61,12.61,0,0,0-4.11.48c-1.91.58-3.75,1.85-3.74,4.56,0,5.59-.26,6.85,2,9s.93,4.67-1.22,6.37-19.26,21-27.63,17.7-8.52-9.48-8.52-9.48l-2.81-5.78L323,407.89s-1-2.44-5.55-1.85l-22.74-8.89-1.93.44L260.89,434s-6.52,1.33-6.3-1.78a6.89,6.89,0,0,1,1.93-4.59s6.15-7.63-2.37-11.89a19.37,19.37,0,0,0-3.71-1.37s-9.74,1.15-7.59,9,4.08,9.11.08,11.51-5.71-3.66-4.82-4.37,8.48-6,.41-14.63c0,0-11.41-4.14-12.52,7.45,0,0,2,3.59,1.15,6.22s-4.82,14.52-12.15,13.82a8.24,8.24,0,0,1-7.74-7.52,7.6,7.6,0,0,1,2.93-6.71c3.48-2.63-1.41-5.7-3-5.26s-5.52,1.52-2.38,5.89S208,441.19,200,443s-8.63-9.18-8.63-9.18.41-2.93,2.56-4.22,1.74-5.37-2.08-5.89-4,3.78-4,3.78,3.29,6.4,3.11,7.85-2.48,8.07-7.59,7.92-8.19-3.81-8.15-7.66a8.75,8.75,0,0,1,3.11-6.26s2.22-4.56-2.93-5.41-3.63,4.93-3.63,4.93,4.34,3.59,3.08,6.66.81,6.48-7,7.56-8.25-7.34-8.25-7.34.11-4.07,2.44-5.74.93-5.07-2.3-5.63S156,428,156,428s8.48,9.89-4.52,13.3c0,0-7.77.11-8.14-7.15,0,0,0-4.22,2.7-6.07s-.81-6-2.89-5.59-4.59,2.63-2.52,6.18,5.52,10.63-5.22,13.74c0,0-7.93-.55-7.89-7.33a6.3,6.3,0,0,1,2.08-5.67c2.74-2.44.4-5.7-2.3-5.7S124,427.3,124,427.3s3.26,6.92,3,7.63.3,6.74-7.44,7.85-7.86-8.85-7.86-8.85.86-3.63,2.41-4.15,1.78-5.67-2.7-5.74-2.89,5.44-2.89,5.44,5.29,12.08-5.48,13.19S94.63,432,94.63,432A10.32,10.32,0,0,1,97,429.15c1.4-1,.81-4.89-2.37-5.11S91,427.48,91,427.48s-.4,7.71-4,7.26-4.12-4.22-3.08-5.18,7.28-6.9.5-11.9a4.48,4.48,0,0,0-.44-.32l-.18-.12c-.16-.11-.33-.22-.51-.32A21.66,21.66,0,0,0,80,415.33s-7.66.23-8,7.82c0,0,.34,4.52,2.74,6S73.41,435,71,434.41s-4.93-2.56-2.41-5.56,7.26-10.55-4.59-14a25.2,25.2,0,0,0-4.85,1.52" transform="translate(-54.83 -223.81)"/><path class="cls-9" d="M508.37,303.4a3.89,3.89,0,0,1-1,.12c-2.89.07-5.11-3.44-2.41-7,.26-.34.53-.72.79-1.13h0a12.06,12.06,0,0,0,1.86-5,5.36,5.36,0,0,0-2.88-5.53h0a12.49,12.49,0,0,0-4.21-1.39c-5.43-.93-7,2.46-7,5.92,0,0,0,0,0,0a11.59,11.59,0,0,0,1.37,5.5s0,0,0,0a2.49,2.49,0,0,0,.6.69h0a.64.64,0,0,0,.39.15,2.93,2.93,0,0,1,.11.3h0c.61,1.57,3,8.55-3.09,7.24-6.81-1.48-4.15-6.52-4.15-6.52l2.08-3.4s3-8.82-6.78-9.6-6.85,12.11-4.33,12.26c0,0,3.26,6.22-3.11,7.41s-4.6-6.07-4.6-6.07l2.52-2.67-3.4-10.37-7,4.91-2.66,1.87s-9.49,2.11-9.34-4.63S441,282.19,441,282.19s-7.26,2.66-8.29-2.08-7-.15-7-.15-1,6.37-6.07,5.93-37.78.89-37.78.89l-3.41.59-3.11,3.26s-5.92,2.67-8.89-.59-1.18-7.41-1.18-7.41l-12.45-1.33s2.08,12.89-11,9.78l-80.29-.6s-8.6-8.59-17.78-11.26l-12.59-5-14.67-3.71L209.7,273l-.59,4.3-.67,21.26-2,.22-.22-27.56s2.89-6.89,10.89-3.55A137.87,137.87,0,0,0,236,273.45l9.33,3.55,9.11,4.67,5.34,4.44,2.66,1.56,15.34.44,24,.67h22.89l14.22.22,8.22.22,3.33-10s.67-8.89,8.89-8.22,9.11,7.56,9.11,7.56l-1.11,5.11,1.78,4.44,7.63-3.11,39-.89,5.78-2.44.22-6.45s1.78-4,5.55-4.89,8.67.89,8,6.45,3.78,3.33,3.78,3.33l3.56-7.11a9.45,9.45,0,0,1,10.89-.22c6,3.78,3.77,11.55,1.55,12.89s1.11,3.55,1.11,3.55l4-2.66a8.7,8.7,0,0,1,4-4.11,8.14,8.14,0,0,1,3.56-.78c5.55,0,8.44,5.78,8.44,5.78s.1.64.19,1.6a28.68,28.68,0,0,1,.1,4.13,16.71,16.71,0,0,0,.82,3.15l.89,3.12-2.44,1.33s-2.49-2-.45-3.78c.77-.67,1.09-2.19,1.18-3.82a14.43,14.43,0,0,1-.1-4.13c.42-3.15,2.25-6.36,7.59-7.38a8.48,8.48,0,0,1,8.22,4.44,23.48,23.48,0,0,1,.43,2.43,15.66,15.66,0,0,1-.15,5.44,17.46,17.46,0,0,0,.35,2.13l2.26,4.22-3.55,1.56s-4-2.44-.67-5.11a5.05,5.05,0,0,0,1.61-2.8,18.45,18.45,0,0,1,.15-5.44c.59-3.06,2.28-6.1,6.46-7.09,5-1.2,7.77,1.25,9.26,3.79" transform="translate(-54.83 -223.81)"/><path class="cls-9" d="M508.37,294.88a7.13,7.13,0,0,1-.58.81,6.73,6.73,0,0,1-1.35,1.31c-3.33,2.45,1.07,4.89,1.07,4.89l.86-.14.11,0" transform="translate(-54.83 -223.81)"/><circle class="cls-10" cx="413.83" cy="67.37" r="7.11"/><circle cx="413.83" cy="67.37" r="1.11"/><circle class="cls-10" cx="429.28" cy="67.15" r="7.11"/><circle cx="429.28" cy="67.15" r="1.11"/><circle class="cls-10" cx="445.72" cy="66.82" r="7.11"/><circle cx="445.72" cy="66.82" r="1.11"/><circle class="cls-11" cx="393.28" cy="57.04" r="7.11"/><circle cx="393.28" cy="57.04" r="1.11"/><circle class="cls-11" cx="165.02" cy="314.23" r="7.11"/><circle cx="165.02" cy="314.23" r="1.11"/><circle class="cls-11" cx="197.02" cy="330.23" r="7.11"/><circle cx="197.02" cy="330.23" r="1.11"/><circle class="cls-11" cx="164.94" cy="345.04" r="7.11"/><circle cx="164.94" cy="345.04" r="1.11"/><circle class="cls-11" cx="164.94" cy="329.04" r="7.11"/><circle cx="164.94" cy="329.04" r="1.11"/><circle class="cls-12" cx="431.61" cy="314.23" r="10.67"/><circle cx="431.61" cy="314.23" r="1.67"/><circle class="cls-12" cx="432.8" cy="342.67" r="10.67"/><circle cx="432.8" cy="342.67" r="1.67"/><circle class="cls-11" cx="196.94" cy="344.45" r="7.11"/><circle cx="196.94" cy="344.45" r="1.11"/><circle class="cls-11" cx="196.94" cy="314.23" r="7.11"/><circle cx="196.94" cy="314.23" r="1.11"/><circle class="cls-11" cx="289.57" cy="59.71" r="7.11"/><circle cx="289.57" cy="59.71" r="1.11"/><circle class="cls-11" cx="304.98" cy="55.26" r="7.11"/><circle cx="304.98" cy="55.26" r="1.11"/><circle class="cls-13" cx="325.46" cy="68.89" r="5.33"/><circle cx="325.46" cy="68.89" r="0.83"/><circle class="cls-13" cx="316.57" cy="61.19" r="5.33"/><circle cx="316.57" cy="61.19" r="0.83"/><circle class="cls-13" cx="322.94" cy="47.26" r="5.33"/><circle cx="322.94" cy="47.26" r="0.83"/><circle class="cls-13" cx="306.94" cy="42.52" r="5.33"/><circle cx="306.94" cy="42.52" r="0.83"/><circle class="cls-13" cx="158.5" cy="50.08" r="5.33"/><circle cx="158.5" cy="50.08" r="0.83"/><circle class="cls-13" cx="209.83" cy="58.08" r="5.33"/><circle cx="209.83" cy="58.08" r="0.83"/><circle class="cls-14" cx="250.01" cy="69.63" r="3.11"/><circle cx="250.01" cy="69.63" r="0.49"/><circle class="cls-14" cx="137.39" cy="327.86" r="3.11"/><circle cx="137.39" cy="327.86" r="0.49"/><circle class="cls-14" cx="143.61" cy="332.74" r="3.11"/><circle cx="143.61" cy="332.74" r="0.49"/><circle class="cls-14" cx="153.83" cy="323.86" r="3.11"/><circle cx="153.83" cy="323.86" r="0.49"/><circle class="cls-14" cx="153.83" cy="333.19" r="3.11"/><circle cx="153.83" cy="333.19" r="0.49"/><circle class="cls-14" cx="184.94" cy="325.19" r="3.11"/><circle cx="184.94" cy="325.19" r="0.49"/><circle class="cls-14" cx="252.16" cy="298.08" r="3.11"/><circle cx="252.16" cy="298.08" r="0.49"/><circle class="cls-14" cx="281.64" cy="297.78" r="3.11"/><circle cx="281.64" cy="297.78" r="0.49"/><circle class="cls-14" cx="281.79" cy="315.41" r="3.11"/><circle cx="281.79" cy="315.41" r="0.49"/><circle class="cls-14" cx="284.01" cy="332.74" r="3.11"/><circle cx="284.01" cy="332.74" r="0.49"/><circle class="cls-14" cx="295.27" cy="311.86" r="3.11"/><circle cx="295.27" cy="311.86" r="0.49"/><circle class="cls-14" cx="303.72" cy="332.89" r="3.11"/><circle cx="303.72" cy="332.89" r="0.49"/><circle class="cls-14" cx="318.53" cy="336.45" r="3.11"/><circle cx="318.53" cy="336.45" r="0.49"/><circle class="cls-15" cx="336.46" cy="337.63" r="3.11"/><circle cx="336.46" cy="337.63" r="0.49"/><circle class="cls-15" cx="349.64" cy="335.71" r="3.11"/><circle cx="349.64" cy="335.71" r="0.49"/><circle class="cls-15" cx="369.79" cy="342.74" r="3.11"/><circle cx="369.79" cy="342.74" r="0.49"/><circle class="cls-15" cx="416.24" cy="323.19" r="3.11"/><circle cx="416.24" cy="323.19" r="0.49"/><circle class="cls-15" cx="413.57" cy="341.41" r="3.11"/><circle cx="413.57" cy="341.41" r="0.49"/><circle class="cls-16" cx="362.37" cy="337.09" r="5.13"/><circle cx="362.37" cy="337.09" r="0.8"/><circle class="cls-17" cx="388.54" cy="320.74" r="6.22"/><circle class="cls-18" cx="388.54" cy="320.74" r="0.97"/><circle class="cls-17" cx="389.58" cy="334.82" r="6.22"/><circle class="cls-18" cx="389.58" cy="334.82" r="0.97"/><circle class="cls-14" cx="186.28" cy="334.52" r="3.11"/><circle cx="186.28" cy="334.52" r="0.49"/><circle class="cls-14" cx="175.61" cy="318.52" r="3.11"/><circle cx="175.61" cy="318.52" r="0.49"/><circle class="cls-14" cx="184.5" cy="307.86" r="3.11"/><circle cx="184.5" cy="307.86" r="0.49"/><circle class="cls-19" cx="264.3" cy="322.52" r="2.22"/><circle cx="264.3" cy="322.52" r="0.35"/><circle class="cls-19" cx="265.78" cy="347.41" r="2.22"/><circle cx="265.78" cy="347.41" r="0.35"/><circle class="cls-19" cx="240.8" cy="346.67" r="2.22"/><circle cx="240.8" cy="346.67" r="0.35"/><circle class="cls-19" cx="253.14" cy="346.08" r="2.22"/><circle cx="253.14" cy="346.08" r="0.35"/><circle class="cls-19" cx="258.63" cy="322.08" r="2.22"/><circle cx="258.63" cy="322.08" r="0.35"/><circle class="cls-19" cx="251.66" cy="322.97" r="2.22"/><circle cx="251.66" cy="322.97" r="0.35"/><circle class="cls-19" cx="245" cy="317.93" r="2.22"/><circle cx="245" cy="317.93" r="0.35"/><circle class="cls-19" cx="244.85" cy="302.23" r="2.22"/><circle cx="244.85" cy="302.23" r="0.35"/><circle class="cls-19" cx="268.26" cy="297.34" r="2.22"/><circle cx="268.26" cy="297.34" r="0.35"/><circle class="cls-19" cx="234.28" cy="338.08" r="2.22"/><circle cx="234.28" cy="338.08" r="0.35"/><circle class="cls-14" cx="209.13" cy="39.63" r="3.11"/><circle cx="209.13" cy="39.63" r="0.49"/><circle class="cls-14" cx="213.83" cy="30.7" r="3.11"/><circle cx="213.83" cy="30.7" r="0.49"/><circle class="cls-14" cx="232.5" cy="20.48" r="3.11"/><circle cx="232.5" cy="20.48" r="0.49"/><circle class="cls-14" cx="241.79" cy="30.08" r="3.11"/><circle cx="241.79" cy="30.08" r="0.49"/><circle class="cls-14" cx="251.13" cy="29.86" r="3.11"/><circle cx="251.13" cy="29.86" r="0.49"/><circle class="cls-14" cx="280.68" cy="18.74" r="3.11"/><circle cx="280.68" cy="18.74" r="0.49"/><circle class="cls-14" cx="281.61" cy="37.63" r="3.11"/><circle cx="281.61" cy="37.63" r="0.49"/><circle class="cls-14" cx="306.5" cy="27.41" r="3.11"/><circle cx="306.5" cy="27.41" r="0.49"/><circle class="cls-14" cx="318.28" cy="15.41" r="3.11"/><circle cx="318.28" cy="15.41" r="0.49"/><circle class="cls-14" cx="339.61" cy="9.63" r="3.11"/><circle cx="339.61" cy="9.63" r="0.49"/><circle class="cls-14" cx="346.06" cy="29.86" r="3.11"/><circle cx="346.06" cy="29.86" r="0.49"/><circle class="cls-14" cx="410.5" cy="20.08" r="3.11"/><circle cx="410.5" cy="20.08" r="0.49"/><circle class="cls-14" cx="382.5" cy="54.52" r="3.11"/><circle cx="382.5" cy="54.52" r="0.49"/><circle class="cls-14" cx="402.5" cy="63.41" r="3.11"/><circle cx="402.5" cy="63.41" r="0.49"/><circle class="cls-14" cx="421.57" cy="74.97" r="3.11"/><circle cx="421.57" cy="74.97" r="0.49"/><circle class="cls-14" cx="438.01" cy="75.41" r="3.11"/><circle cx="438.01" cy="75.41" r="0.49"/><path class="cls-14" d="M508.37,295.79a2.82,2.82,0,0,0-.58-.1,1.32,1.32,0,0,0-.28,0,3.11,3.11,0,1,0,0,6.22,3,3,0,0,0,.86-.12l.11,0h0" transform="translate(-54.83 -223.81)"/><circle cx="452.68" cy="74.97" r="0.49"/><circle class="cls-14" cx="371.39" cy="44.3" r="3.11"/><circle cx="371.39" cy="44.3" r="0.49"/><circle class="cls-14" cx="233.57" cy="29.86" r="3.11"/><circle cx="233.57" cy="29.86" r="0.49"/><circle class="cls-14" cx="222.94" cy="19.41" r="3.11"/><circle cx="222.94" cy="19.41" r="0.49"/><circle class="cls-14" cx="263.13" cy="62.74" r="3.11"/><circle cx="263.13" cy="62.74" r="0.49"/><circle class="cls-20" cx="205.17" cy="70.3" r="5.33"/><circle cx="205.17" cy="70.3" r="0.83"/><circle class="cls-21" cx="180.72" cy="74.46" r="3.22"/><circle cx="180.72" cy="74.46" r="0.5"/><circle class="cls-21" cx="189.17" cy="57.8" r="3.22"/><circle cx="189.17" cy="57.8" r="0.5"/><circle class="cls-21" cx="169.17" cy="42.24" r="3.22"/><circle cx="169.17" cy="42.24" r="0.5"/><circle class="cls-21" cx="148.06" cy="26.02" r="3.22"/><circle cx="148.06" cy="26.02" r="0.5"/><circle class="cls-21" cx="112.72" cy="36.69" r="3.22"/><circle cx="112.72" cy="36.69" r="0.5"/><circle class="cls-21" cx="93.17" cy="75.35" r="3.22"/><circle cx="93.17" cy="75.35" r="0.5"/><circle class="cls-21" cx="122.06" cy="76.46" r="3.22"/><circle cx="122.06" cy="76.46" r="0.5"/><circle class="cls-22" cx="200.83" cy="78.74" r="2.17"/><circle cx="200.83" cy="78.74" r="0.34"/><circle class="cls-13" cx="297.76" cy="73.63" r="5.33"/><circle cx="297.76" cy="73.63" r="0.83"/><circle class="cls-13" cx="284.57" cy="71.71" r="5.33"/><circle cx="284.57" cy="71.71" r="0.83"/><circle class="cls-13" cx="373.46" cy="76" r="5.33"/><circle cx="373.46" cy="76" r="0.83"/><circle class="cls-13" cx="363.98" cy="55.56" r="5.33"/><circle cx="363.98" cy="55.56" r="0.83"/><circle class="cls-13" cx="374.35" cy="52.6" r="5.33"/><circle cx="374.35" cy="52.6" r="0.83"/><circle class="cls-11" cx="362.46" cy="68" r="7.11"/><circle cx="362.46" cy="68" r="1.11"/><path class="cls-14" d="M508.07,423.76a3.33,3.33,0,0,0-1-.06,3.12,3.12,0,0,0,.63,6.2,1.61,1.61,0,0,0,.37-.07" transform="translate(-54.83 -223.81)"/><circle cx="452.55" cy="202.99" r="0.49"/><circle class="cls-10" cx="445.46" cy="211.6" r="7.11"/><circle cx="445.46" cy="211.6" r="1.11"/><circle class="cls-14" cx="437.71" cy="204.19" r="3.11"/><circle cx="437.71" cy="204.19" r="0.49"/><circle class="cls-10" cx="428.57" cy="212.19" r="7.11"/><circle cx="428.57" cy="212.19" r="1.11"/><circle class="cls-14" cx="420.82" cy="204.78" r="3.11"/><circle cx="420.82" cy="204.78" r="0.49"/><circle class="cls-10" cx="412.57" cy="210.41" r="7.11"/><circle cx="412.57" cy="210.41" r="1.11"/><circle class="cls-14" cx="404.82" cy="203.01" r="3.11"/><circle cx="404.82" cy="203.01" r="0.49"/><circle class="cls-10" cx="396.57" cy="211" r="7.11"/><circle cx="396.57" cy="211" r="1.11"/><circle class="cls-14" cx="388.82" cy="203.6" r="3.11"/><circle cx="388.82" cy="203.6" r="0.49"/><circle class="cls-10" cx="379.38" cy="211.3" r="7.11"/><circle cx="379.38" cy="211.3" r="1.11"/><circle class="cls-14" cx="371.64" cy="203.9" r="3.11"/><circle cx="371.64" cy="203.9" r="0.49"/><circle class="cls-10" cx="160.12" cy="211.3" r="7.11"/><circle cx="160.12" cy="211.3" r="1.11"/><circle class="cls-14" cx="152.38" cy="203.9" r="3.11"/><circle cx="152.38" cy="203.9" r="0.49"/><circle class="cls-10" cx="144.5" cy="211.12" r="7.11"/><circle cx="144.5" cy="211.12" r="1.11"/><circle class="cls-14" cx="31.93" cy="330.12" r="3.11"/><circle cx="31.93" cy="330.12" r="0.49"/><circle class="cls-10" cx="24.06" cy="337.34" r="7.11"/><circle cx="24.06" cy="337.34" r="1.11"/><circle class="cls-14" cx="15.49" cy="328.64" r="3.11"/><circle cx="15.49" cy="328.64" r="0.49"/><circle class="cls-10" cx="7.61" cy="335.86" r="7.11"/><circle cx="7.61" cy="335.86" r="1.11"/><circle class="cls-14" cx="47.93" cy="330.86" r="3.11"/><circle cx="47.93" cy="330.86" r="0.49"/><circle class="cls-10" cx="40.06" cy="338.08" r="7.11"/><circle cx="40.06" cy="338.08" r="1.11"/><circle class="cls-14" cx="136.76" cy="203.71" r="3.11"/><circle cx="136.76" cy="203.71" r="0.49"/><circle class="cls-10" cx="127.99" cy="211.52" r="7.11"/><circle cx="127.99" cy="211.52" r="1.11"/><circle class="cls-14" cx="120.24" cy="204.12" r="3.11"/><circle cx="120.24" cy="204.12" r="0.49"/><circle class="cls-10" cx="112.58" cy="211.52" r="7.11"/><circle cx="112.58" cy="211.52" r="1.11"/><circle class="cls-14" cx="104.83" cy="204.12" r="3.11"/><circle cx="104.83" cy="204.12" r="0.49"/><circle class="cls-10" cx="96.28" cy="209.75" r="7.11"/><circle cx="96.28" cy="209.75" r="1.11"/><circle class="cls-14" cx="88.54" cy="202.34" r="3.11"/><circle cx="88.54" cy="202.34" r="0.49"/><circle class="cls-10" cx="80.32" cy="210.74" r="7.11"/><circle cx="80.32" cy="210.74" r="1.11"/><circle class="cls-14" cx="72.57" cy="203.34" r="3.11"/><circle cx="72.57" cy="203.34" r="0.49"/><circle class="cls-10" cx="64.61" cy="211.33" r="7.11"/><circle cx="64.61" cy="211.33" r="1.11"/><circle class="cls-14" cx="56.87" cy="203.93" r="3.11"/><circle cx="56.87" cy="203.93" r="0.49"/><circle class="cls-10" cx="47.43" cy="211.04" r="7.11"/><circle cx="47.43" cy="211.04" r="1.11"/><circle class="cls-14" cx="39.68" cy="203.63" r="3.11"/><circle cx="39.68" cy="203.63" r="0.49"/><circle class="cls-10" cx="25" cy="199.35" r="7.11"/><circle cx="25" cy="199.35" r="1.11"/><circle class="cls-14" cx="31.99" cy="207.47" r="3.11"/><circle cx="31.99" cy="207.47" r="0.49"/><path class="cls-10" d="M59.19,428a7.11,7.11,0,1,0,4.91-12.23,7.05,7.05,0,0,0-4.91,2" transform="translate(-54.83 -223.81)"/><circle cx="9.3" cy="199.05" r="1.11"/><circle class="cls-14" cx="16.29" cy="207.17" r="3.11"/><circle cx="16.29" cy="207.17" r="0.49"/><circle class="cls-10" cx="357.19" cy="198.57" r="7.11"/><circle cx="357.19" cy="198.57" r="1.11"/><circle class="cls-14" cx="363.24" cy="207.42" r="3.11"/><circle cx="363.24" cy="207.42" r="0.49"/><circle class="cls-10" cx="340.58" cy="199.67" r="7.11"/><circle cx="340.58" cy="199.67" r="1.11"/><circle class="cls-23" cx="286.26" cy="187.36" r="8.87"/><circle cx="286.26" cy="187.36" r="1.39"/><circle class="cls-23" cx="268.19" cy="200.1" r="8.87"/><circle cx="268.19" cy="200.1" r="1.39"/><circle class="cls-23" cx="307.3" cy="219.36" r="8.87"/><circle cx="307.3" cy="219.36" r="1.39"/><circle class="cls-14" cx="347.88" cy="207.51" r="3.11"/><circle cx="347.88" cy="207.51" r="0.49"/><circle class="cls-10" cx="60.14" cy="324.56" r="7.11"/><circle cx="60.14" cy="324.56" r="1.11"/><circle class="cls-14" cx="67.44" cy="332.4" r="3.11"/><circle cx="67.44" cy="332.4" r="0.49"/><circle class="cls-10" cx="75.61" cy="325.19" r="7.11"/><circle cx="75.61" cy="325.19" r="1.11"/><circle class="cls-14" cx="82.92" cy="333.03" r="3.11"/><circle cx="82.92" cy="333.03" r="0.49"/><circle class="cls-10" cx="91.61" cy="325.19" r="7.11"/><circle cx="91.61" cy="325.19" r="1.11"/><circle class="cls-14" cx="98.92" cy="333.03" r="3.11"/><circle cx="98.92" cy="333.03" r="0.49"/><circle class="cls-10" cx="107.61" cy="324.74" r="7.11"/><circle cx="107.61" cy="324.74" r="1.11"/><circle class="cls-14" cx="114.92" cy="332.58" r="3.11"/><circle cx="114.92" cy="332.58" r="0.49"/><circle class="cls-10" cx="124.5" cy="324.3" r="7.11"/><circle cx="124.5" cy="324.3" r="1.11"/><circle class="cls-14" cx="131.8" cy="332.14" r="3.11"/><circle cx="131.8" cy="332.14" r="0.49"/><circle class="cls-14" cx="332.35" cy="207.86" r="3.11"/><circle cx="332.35" cy="207.86" r="0.49"/><circle class="cls-14" cx="265.09" cy="186.23" r="3.11"/><circle cx="265.09" cy="186.23" r="0.49"/><circle class="cls-14" cx="240.2" cy="177.93" r="3.11"/><circle cx="240.2" cy="177.93" r="0.49"/><circle class="cls-10" cx="179.69" cy="199.97" r="7.11"/><circle cx="179.69" cy="199.97" r="1.11"/><circle class="cls-14" cx="187" cy="207.81" r="3.11"/><circle cx="187" cy="207.81" r="0.49"/><circle class="cls-10" cx="195.99" cy="199.08" r="7.11"/><circle cx="195.99" cy="199.08" r="1.11"/><circle class="cls-14" cx="203.29" cy="206.92" r="3.11"/><circle cx="203.29" cy="206.92" r="0.49"/><polygon class="cls-24" points="12.06 52.89 74.28 52.89 74.87 97.93 11.46 97.93 12.06 52.89"/><polygon class="cls-24" points="74.72 90.52 155.17 90.52 155.17 97.86 74.87 97.93 74.72 90.52"/><path class="cls-25" d="M168,321V269h11.56v-2l1.55-.22,4.67-10.45.89,3.12h3.11s1.78,2.44,1.78,7.55l3.77-.44s5.11,2.66,5.34,6,0,8.89,0,8.89l4,3.77-8.67-.66s0,4.66,4.67,3.77l.44,9.56h-5.55l-1.12-1.11-12.66-.22s-1.78-3.11-4.89-2.23-5.56,1.12-5.11,4.89,3.55,7.11,3.55,7.11h3.56l.44,15.56Z" transform="translate(-54.83 -223.81)"/><polygon class="cls-25" points="134.72 97.86 142.5 76.97 145.39 76.75 145.39 98.3 134.72 97.86"/><polygon class="cls-25" points="159.17 77.19 162.06 76.52 169.17 96.97 158.94 98.08 159.17 77.19"/><polygon class="cls-25" points="146.28 94.75 158.72 94.75 158.94 98.08 146.5 98.08 146.28 94.75"/><path class="cls-26" d="M201.78,288.78l.22,8.44,14.89-.22s0-5.11,3.78-3.55c0,0,2.66-3.34-7.56-4.89,0,0-2.67.22-1.78,5.77,0,0-5.33-1.55-5.33-.22C206,294.11,206.89,288.33,201.78,288.78Z" transform="translate(-54.83 -223.81)"/><path class="cls-27" d="M223.78,272.33l.89,5.12h-7.34l.45,2.88h-2l-.22,1.56-5.56.89.44,2.22,12.45.22s2.44,2.67-1.11,4.23l-.22,4,2.88.66,2-1.78,9.78-.22,3.56,3.56.22,18.22-3.33,2-5.78.22.67,5.34L244,321l-.67-35.55s-7.33-1.34-8.66-6.45c0,0-8.67-3.33-8.89-7.11Z" transform="translate(-54.83 -223.81)"/><polygon class="cls-27" points="222.72 66.3 239.39 66.97 239.39 97.86 219.39 98.3 223.39 93.63 222.72 66.3"/><polygon class="cls-27" points="256.72 66.52 268.28 66.97 270.94 71.86 270.94 92.75 296.5 92.52 295.61 80.3 300.94 80.08 301.17 97.86 256.72 97.86 256.72 66.52"/><polygon class="cls-27" points="210.72 22.97 226.72 23.19 226.94 34.52 277.61 34.52 277.39 43.19 271.17 42.97 271.61 52.74 267.39 56.08 267.17 60.74 238.94 61.19 238.94 63.19 222.72 63.41 222.5 61.41 220.5 60.74 220.06 40.08 210.94 36.3 210.94 33.41 220.06 34.74 220.06 28.08 210.94 24.97 210.72 22.97"/><polygon class="cls-27" points="237.83 23.41 230.94 23.41 231.17 24.97 238.5 26.75 238.28 32.08 258.06 31.41 282.94 25.63 282.5 22.3 246.94 22.52 247.61 24.97 237.17 25.41 237.83 23.41"/><path class="cls-27" d="M411.78,239H377.33s-.66,4.89-3.11,5.33l.45,10H360v5.12h15.11V265h5.78v-6h12v-8.67a9.3,9.3,0,0,1,9.33-3.77c6.22,1.11,6.45,2.66,6.45,2.66h3.11Z" transform="translate(-54.83 -223.81)"/><path class="cls-27" d="M404.44,253h46.67v-5.11h27.56v4.67l-11.78,2.66.22,4.23-7.55,6.22.22,5.33-2.22,2.22.22,9.11s-.89-11.11-7.78-10.22-8.89,3.78-8.89,3.78V263.22H418.89v5.11H405.56l-3.12,3.78-.22,9.11-3.11,3.11h-4.22V274.11l-2.78-2.78v-9.66h11.67Z" transform="translate(-54.83 -223.81)"/><path class="cls-27" d="M440.67,283.22s3.55,4.45,6.44,4.67a8.62,8.62,0,0,0,5.11-1.33l.22,35.11h-12Z" transform="translate(-54.83 -223.81)"/><polygon class="cls-27" points="331.83 63.19 345.39 62.97 345.39 92.52 358.94 92.3 359.39 75.41 365.17 75.86 365.61 97.63 330.06 97.86 329.83 85.41 321.61 74.97 332.5 74.3 331.83 63.19"/><polygon class="cls-27" points="298.94 63.08 309.39 63.41 315.5 68.52 315.39 90.3 320.61 95.3 320.5 97.41 305.5 97.75 305.06 68.52 298.94 63.08"/><polygon class="cls-27" points="206.94 194.97 210.94 194.97 210.99 202.3 211.17 228.97 206.94 229.41 206.94 194.97"/><polygon class="cls-27" points="228.06 202.52 210.99 202.3 211.17 207.86 227.83 207.86 228.06 202.52"/><polygon class="cls-27" points="228.5 189.41 233.39 189.41 233.39 229.41 228.06 229.41 228.5 189.41"/><path class="cls-27" d="M283.56,409.45h22V413H283.33S283.56,410.11,283.56,409.45Z" transform="translate(-54.83 -223.81)"/><polygon class="cls-27" points="246.28 190.08 251.61 190.08 251.61 229.41 246.06 229.41 246.28 190.08"/><polygon class="cls-27" points="249.83 181.63 261.39 182.08 261.17 187.63 249.61 187.63 249.83 181.63"/><polygon class="cls-27" points="236.06 177.41 244.72 177.63 244.72 185.41 236.5 185.41 236.06 177.41"/><polygon class="cls-27" points="251.39 201.41 257.61 201.41 257.61 212.52 259.83 213.86 257.39 216.08 251.83 211.41 251.39 201.41"/><path class="cls-27" d="M315.33,429.89s8,8.44,15.11,0l7.12-.22-.23-8.89h6.23a16.51,16.51,0,0,0,6.22-4.45L351.56,431l2.22,4.45-.22,1.55-2.45,1.33v14.89H315.33S314.78,430.45,315.33,429.89Z" transform="translate(-54.83 -223.81)"/><polygon class="cls-27" points="297.17 189.86 307.39 190.75 307.61 197.41 297.39 201.86 297.17 189.86"/><polygon class="cls-27" points="148.35 297.34 162.87 297.93 162.87 300.6 156.65 304 156.94 319.71 162.13 321.34 157.24 325.49 157.54 333.49 161.24 336.15 157.39 339.12 157.09 349.49 161.69 352.75 167.61 352.75 167.61 355.71 147.76 355.71 148.35 297.34"/><polygon class="cls-27" points="180.65 297.78 194.72 297.78 194.72 300.45 188.87 306.3 188.87 319.12 193.83 322.08 189.24 326.37 189.39 334.52 192.94 336.89 189.39 340.15 189.39 346.37 194.28 351.41 199.91 351.71 199.91 355.71 180.5 355.71 180.65 297.78"/><path class="cls-27" d="M336.37,520.41H305l-4.59,3.41v16.44h16v16H289v23.11h47.26V560s-5.48-15.26-3.41-21a94.66,94.66,0,0,1,3.86-9.34Z" transform="translate(-54.83 -223.81)"/><polygon class="cls-28" points="333.39 309.34 350.28 309.34 350.28 329.19 352.65 332.89 352.65 355.71 345.54 355.71 345.54 313.19 337.39 313.19 337.39 355.56 333.09 355.56 333.39 309.34"/><polygon class="cls-29" points="151.61 74.97 148.5 77.63 148.5 93.63 155.83 93.63 155.83 76.97 153.61 74.75 151.61 74.97"/><line class="cls-28" x1="153.83" y1="76.97" x2="154.06" y2="91.63"/><line class="cls-28" x1="152.06" y1="76.74" x2="152.06" y2="91.86"/><line class="cls-28" x1="149.61" y1="77.19" x2="150.06" y2="91.41"/><polygon class="cls-30" points="23.02 33.04 30.13 33.34 30.13 52.89 22.43 52.89 23.02 33.04"/><polygon class="cls-30" points="40.8 33.04 47.91 33.34 47.91 52.89 40.2 52.89 40.8 33.04"/><polygon class="cls-30" points="57.39 33.04 64.5 33.34 64.5 52.89 56.8 52.89 57.39 33.04"/><polygon class="cls-31" points="58.5 36.15 63.24 36.15 60.87 39.41 58.5 36.15"/><polygon class="cls-31" points="41.72 35.6 46.46 35.6 44.09 38.86 41.72 35.6"/><polygon class="cls-31" points="23.83 36.49 28.57 36.49 26.2 39.74 23.83 36.49"/><polyline class="cls-8" points="151.61 74.97 126.06 79.63 93.61 79.63 90.28 76.52 90.5 73.63 108.94 34.3 112.06 32.3 145.61 22.52 149.83 21.86 171.39 39.63 172.94 43.63 170.28 46.74"/><path class="cls-8" d="M208.44,298.56l4.23-.23,21.55,3.56,4.22-.22,18-2.22s11.12,4,8.67-8.67" transform="translate(-54.83 -223.81)"/><polyline class="cls-8" points="204.94 62.3 206.01 39.63 208.28 31.86 212.72 26.08 221.83 16.08 281.83 16.08 283.79 18.75 282.5 22.3 232.5 17.37 229.17 18.75 230.06 31.63 232.94 34.08 282.94 33.63 284.94 36.52 295.61 55.41"/><polyline class="cls-8" points="309.39 48.3 320.5 52.52 326.28 52.74 342.94 29.86 346.06 26.75 409.17 23.19 413.39 21.41 412.72 17.86 339.61 6.52 318.28 12.3 315.39 12.52 303.61 25.41 301.61 42.52 302.5 46.97"/><polyline class="cls-8" points="366.5 61.41 376.06 71.41 377.61 79.41 373.61 98.52"/><rect class="cls-32" x="4.06" y="97.95" width="77.04" height="12.89"/><rect class="cls-32" x="85.83" y="97.95" width="117.04" height="12.89"/><rect class="cls-32" x="206.72" y="97.95" width="198.89" height="12.89"/><rect class="cls-32" x="409.39" y="97.95" width="44.67" height="12.89"/><rect class="cls-32" x="336.2" y="230.78" width="117.33" height="12.89"/><rect class="cls-32" x="201.91" y="230.78" width="131.11" height="12.89"/><rect class="cls-32" x="3.83" y="230.78" width="195.33" height="12.89"/><rect class="cls-32" x="3.69" y="355.99" width="134.3" height="12.89"/><rect class="cls-32" x="140.2" y="355.99" width="70.22" height="12.89"/><rect class="cls-32" x="212.87" y="355.99" width="112.44" height="12.89"/><rect class="cls-32" x="328.43" y="355.99" width="124.44" height="12.89"/><text class="cls-33" transform="translate(28.65 14.66)">H<tspan class="cls-34" x="4.16" y="0">o</tspan><tspan x="8.35" y="0">lz</tspan><tspan class="cls-35" x="14.22" y="0">s</tspan><tspan class="cls-36" x="17.39" y="0">t</tspan><tspan class="cls-35" x="19.99" y="0">off</tspan><tspan class="cls-35"><tspan class="cls-37" x="0" y="8">Z</tspan><tspan x="4.33" y="8">ells</tspan><tspan class="cls-38" x="15.28" y="8">t</tspan><tspan x="17.88" y="8">off</tspan><tspan class="cls-39" x="0" y="16">A</tspan><tspan x="4.87" y="16">ltpapier</tspan></tspan></text><text class="cls-40" transform="translate(97.83 106.97)">S<tspan class="cls-41" x="5.54" y="0">t</tspan><tspan class="cls-42" x="9.29" y="0">o</tspan><tspan class="cls-43" x="14.12" y="0">f</tspan><tspan class="cls-34" x="16.73" y="0">fa</tspan><tspan x="24.93" y="0">uf</tspan><tspan class="cls-42" x="33.52" y="0">l</tspan><tspan class="cls-44" x="36.21" y="0">a</tspan><tspan x="41.2" y="0">uf</tspan><tspan class="cls-45" x="49.79" y="0">/</tspan><tspan class="cls-46" x="54.04" y="0">S</tspan><tspan class="cls-34" x="59.28" y="0">i</tspan><tspan x="61.6" y="0">eb</tspan><tspan class="cls-47" x="71.94" y="0">p</tspan><tspan x="77.11" y="0">a</tspan><tspan class="cls-48" x="82.2" y="0">r</tspan><tspan x="85.95" y="0">t</tspan><tspan class="cls-34" x="89.85" y="0">i</tspan><tspan x="92.17" y="0">e</tspan></text><text class="cls-40" transform="translate(15.73 106.97)">S<tspan class="cls-41" x="5.54" y="0">t</tspan><tspan class="cls-42" x="9.29" y="0">o</tspan><tspan class="cls-43" x="14.12" y="0">f</tspan><tspan x="16.73" y="0">fz</tspan><tspan class="cls-34" x="24.75" y="0">e</tspan><tspan class="cls-47" x="29.71" y="0">n</tspan><tspan x="34.89" y="0">t</tspan><tspan class="cls-41" x="38.79" y="0">r</tspan><tspan x="42.44" y="0">a</tspan><tspan class="cls-42" x="47.53" y="0">l</tspan><tspan x="50.22" y="0">e</tspan></text><text class="cls-40" transform="translate(295.33 106.97)">P<tspan class="cls-49" x="5.21" y="0">r</tspan><tspan class="cls-34" x="8.71" y="0">e</tspan><tspan class="cls-47" x="13.67" y="0">s</tspan><tspan x="18.16" y="0">s</tspan><tspan class="cls-34" x="22.85" y="0">e</tspan><tspan x="27.81" y="0">n</tspan></text><text class="cls-40" transform="translate(413.78 106.97)"><tspan class="cls-47">T</tspan><tspan class="cls-50" x="4.39" y="0">r</tspan><tspan x="8.04" y="0">ockn</tspan><tspan class="cls-44" x="28.44" y="0">e</tspan><tspan x="33.4" y="0">n</tspan></text><text class="cls-40" transform="translate(82.7 241.03)"><tspan class="cls-47">T</tspan><tspan class="cls-50" x="4.39" y="0">r</tspan><tspan x="8.04" y="0">ockn</tspan><tspan class="cls-44" x="28.44" y="0">e</tspan><tspan x="33.4" y="0">n</tspan></text><text class="cls-40" transform="translate(379.63 241.03)"><tspan class="cls-47">T</tspan><tspan class="cls-50" x="4.39" y="0">r</tspan><tspan x="8.04" y="0">ockn</tspan><tspan class="cls-44" x="28.44" y="0">e</tspan><tspan x="33.4" y="0">n</tspan></text><text class="cls-40" transform="translate(58.11 364.92)"><tspan class="cls-47">T</tspan><tspan class="cls-50" x="4.39" y="0">r</tspan><tspan x="8.04" y="0">ockn</tspan><tspan class="cls-44" x="28.44" y="0">e</tspan><tspan x="33.4" y="0">n</tspan></text><text class="cls-40" transform="translate(156.64 364.92)">G<tspan class="cls-47" x="5.62" y="0">l</tspan><tspan class="cls-46" x="8.31" y="0">ä</tspan><tspan class="cls-45" x="13.1" y="0">t</tspan><tspan class="cls-47" x="16.6" y="0">t</tspan><tspan class="cls-34" x="20.3" y="0">e</tspan><tspan x="25.26" y="0">n</tspan></text><text class="cls-40" transform="translate(249.68 364.92)"><tspan class="cls-45">V</tspan><tspan class="cls-47" x="4.66" y="0">e</tspan><tspan class="cls-46" x="9.52" y="0">r</tspan><tspan class="cls-47" x="13.02" y="0">e</tspan><tspan x="17.88" y="0">delu</tspan><tspan class="cls-46" x="36.47" y="0">n</tspan><tspan x="41.55" y="0">g</tspan></text><text class="cls-40" transform="translate(374.71 364.92)"><tspan class="cls-49">A</tspan><tspan class="cls-34" x="5.68" y="0">u</tspan><tspan x="10.86" y="0">srü</tspan><tspan class="cls-45" x="24.53" y="0">s</tspan><tspan x="28.82" y="0">tu</tspan><tspan class="cls-46" x="38" y="0">n</tspan><tspan class="cls-51" x="43.08" y="0">g</tspan></text><text class="cls-40" transform="translate(245.96 241.03)">L<tspan class="cls-47" x="4.42" y="0">e</tspan><tspan x="9.28" y="0">i</tspan><tspan class="cls-42" x="11.7" y="0">m</tspan><tspan x="19.67" y="0">p</tspan><tspan class="cls-49" x="25.04" y="0">r</tspan><tspan class="cls-34" x="28.54" y="0">e</tspan><tspan class="cls-47" x="33.5" y="0">s</tspan><tspan x="37.99" y="0">se</tspan></text></svg>