<svg id="Ebene_1" data-name="Ebene 1" xmlns="http://www.w3.org/2000/svg" viewBox="0 0 1238.65 534.15"><defs><style>.cls-1,.cls-7{fill:#26661f;}.cls-1,.cls-10,.cls-11,.cls-2,.cls-22{stroke:#000;}.cls-1,.cls-10,.cls-11,.cls-2,.cls-22,.cls-3,.cls-4{stroke-miterlimit:10;}.cls-1,.cls-2,.cls-22{stroke-width:1.24px;}.cls-2,.cls-8{fill:#c60c0c;}.cls-10,.cls-11,.cls-3,.cls-4{fill:none;}.cls-3{stroke:#d6db05;stroke-width:9.04px;}.cls-4{stroke:#ce0202;stroke-width:7.75px;}.cls-5{fill:#ff7900;}.cls-22,.cls-6{fill:#101051;}.cls-9{fill:#8e8e8e;}.cls-10{stroke-width:1.29px;}.cls-11{stroke-width:1px;}.cls-12{font-size:46.04px;font-family:Stellar-Bold, Stellar;font-weight:700;}.cls-13{letter-spacing:-0.01em;}.cls-14{letter-spacing:0em;}.cls-15{letter-spacing:-0.03em;}.cls-16{letter-spacing:-0.01em;}.cls-17{letter-spacing:-0.02em;}.cls-18{letter-spacing:-0.04em;}.cls-19{letter-spacing:-0.01em;}.cls-20{letter-spacing:0em;}.cls-21{letter-spacing:-0.01em;}</style></defs><polygon class="cls-1" points="1108.34 72.26 932.01 413.37 852.91 334.27 820.78 366.4 870.22 415.84 992.98 415.84 1151.18 87.09 1108.34 72.26"/><polygon class="cls-2" points="1197.14 87.09 1038.95 415.84 977 415.84 977 412.4 977.97 413.37 1154.29 72.26 1197.14 87.09"/><path class="cls-3" d="M10.78,368.58S237.25,432.85,277,689.93" transform="translate(-9.54 -173.89)"/><path class="cls-4" d="M15.32,363.64S241.8,427.91,281.59,685" transform="translate(-9.54 -173.89)"/><path class="cls-5" d="M31.91,468.7l36.73,29.84s24.1-17.4,2.1-40.45C70.74,458.09,48.56,439.63,31.91,468.7Z" transform="translate(-9.54 -173.89)"/><path class="cls-5" d="M84.65,509.87l30.12,36.49s27.06-12.32,10-39.25C124.81,507.11,106.69,484.64,84.65,509.87Z" transform="translate(-9.54 -173.89)"/><path class="cls-5" d="M132.31,558.19l27.48,38.53s27.86-10.37,12.78-38.44C172.57,558.28,156.08,534.59,132.31,558.19Z" transform="translate(-9.54 -173.89)"/><path class="cls-5" d="M166.7,614.62l15.37,44.75s29.67-2,23.19-33.22C205.26,626.15,196.2,598.75,166.7,614.62Z" transform="translate(-9.54 -173.89)"/><path class="cls-6" d="M100.44,411.46S191.68,198,296.7,173.89c0,0,8.6,110.18-185.93,249.62,0,0,8.61,21.52-5.74,33.57s-27.54,10.62-35.58,2.3S54,440.73,64.86,421.5,100.44,411.46,100.44,411.46Z" transform="translate(-9.54 -173.89)"/><path class="cls-7" d="M161.18,466.45S293.23,275.52,401,272.89c0,0-13.59,109.68-232.06,207.44,0,0,4.13,22.8-12.33,31.74s-29.11,4.9-35.32-4.86-11.46-21.37,3.07-38S161.18,466.45,161.18,466.45Z" transform="translate(-9.54 -173.89)"/><path class="cls-8" d="M251.44,596.06S430.13,447.85,534.55,474.39c0,0-42.68,101.94-279.43,137.11,0,0-2.17,23.07-20.44,27.24s-29.35-3.14-32.7-14.22-5.26-23.67,13.22-35.78S251.44,596.06,251.44,596.06Z" transform="translate(-9.54 -173.89)"/><path class="cls-9" d="M523.37,321.56l28.31,42.08L233.38,556.45l-10.71-12.24L220,546.89s5.36,17.6-14.92,26.78-33.28-13.77-33.28-13.77-8.8-19.13,6.89-32.52,27.16-3.06,27.16-3.06l2.68-3.06-4.6-7.65Z" transform="translate(-9.54 -173.89)"/><line class="cls-10" x1="267.83" y1="491.98" x2="348.55" y2="467.11"/><line class="cls-10" x1="265.73" y1="507.66" x2="325.6" y2="507.28"/><line class="cls-10" x1="283.9" y1="35.48" x2="343.77" y2="35.1"/><line class="cls-10" x1="351.42" y1="50.85" x2="338.23" y2="109.25"/><line class="cls-11" x1="521.47" y1="161.15" x2="557.43" y2="160.77"/><text class="cls-12" transform="translate(355.83 52.26)">Z<tspan class="cls-13" x="23.94" y="0">a</tspan><tspan class="cls-14" x="45.85" y="0">p</tspan><tspan class="cls-15" x="68.83" y="0">f</tspan><tspan class="cls-16" x="85.12" y="0">e</tspan><tspan x="107.73" y="0">n</tspan></text><text class="cls-12" transform="translate(562.41 174.49)">Stäb<tspan class="cls-17" x="87.66" y="0">c</tspan><tspan x="109.76" y="0">h</tspan><tspan class="cls-16" x="133.33" y="0">e</tspan><tspan x="155.93" y="0">n</tspan></text><text class="cls-12" transform="translate(354.12 465.2)"><tspan class="cls-18">A</tspan><tspan class="cls-13" x="25.23" y="0">d</tspan><tspan x="48.43" y="0">erh</tspan><tspan class="cls-19" x="112.06" y="0">a</tspan><tspan class="cls-20" x="133.97" y="0">ut</tspan></text><text class="cls-12" transform="translate(347.13 522.41)"><tspan class="cls-13">N</tspan><tspan class="cls-21" x="25.51" y="0">e</tspan><tspan x="48.34" y="0">tzh</tspan><tspan class="cls-13" x="110.91" y="0">a</tspan><tspan x="132.82" y="0">ut</tspan></text><polygon class="cls-1" points="703.09 416.36 1205.69 416.36 1205.69 526.77 701.44 526.77 703.09 416.36"/><polygon class="cls-22" points="1237.79 87.09 1079.59 415.84 1017.65 415.84 1017.65 412.4 1018.61 413.37 1194.94 72.26 1237.79 87.09"/><polygon class="cls-1" points="861.3 329.48 814.52 376.26 814.21 375.95 789.13 304.1 860.98 329.16 861.3 329.48"/></svg>