<svg id="Ebene_1" data-name="Ebene 1" xmlns="http://www.w3.org/2000/svg" viewBox="0 0 9.98 6.37"><defs><style>.cls-1,.cls-2{fill:none;stroke-miterlimit:10;stroke-width:0.5px;}.cls-1{stroke:#353535;}.cls-2{stroke:#c44536;}.cls-3{fill:#fff;}.cls-4{fill:#353535;}</style></defs><rect class="cls-1" x="0.28" y="0.25" width="9.42" height="5.87"/><circle class="cls-2" cx="4.99" cy="3.18" r="1.98"/><rect class="cls-3" y="2.22" width="9.98" height="1.92"/><path class="cls-4" d="M5.09,7.43H4.68V5.89h.5l.27.82.27-.82h.49V7.43h-.4v-1L5.6,7.1H5.29l-.2-.64Z" transform="translate(-1.73 -3.48)"/><path class="cls-4" d="M6.88,7.13h.57v.3h-1V5.89h1v.3H6.88V6.5h.47v.31H6.88Z" transform="translate(-1.73 -3.48)"/><path class="cls-4" d="M7.62,5.89h.76c.26,0,.38.1.38.3v.95c0,.19-.12.29-.38.29H7.62ZM8.31,7.1V6.22s0,0-.07,0H8.07v1h.17S8.31,7.14,8.31,7.1Z" transform="translate(-1.73 -3.48)"/></svg>