<?xml version="1.0" encoding="utf-8"?>
<!-- Generator: Adobe Illustrator 24.2.1, SVG Export Plug-In . SVG Version: 6.00 Build 0)  -->
<svg version="1.1" id="Ebene_1" xmlns="http://www.w3.org/2000/svg" xmlns:xlink="http://www.w3.org/1999/xlink" x="0px" y="0px"
	 viewBox="0 0 500 500" style="enable-background:new 0 0 500 500;" xml:space="preserve">
<style type="text/css">
	.st0{fill:#353535;}
	.st1{fill-rule:evenodd;clip-rule:evenodd;fill:#353535;}
	.st2{font-family: 'Poppins', sans-serif;}
	.st3{font-size:90px;}
</style>
<path class="st0" d="M222.8,372.53v-3.51c21.64-2.2,32.23-13.24,32.23-34.45v-38.69c0-23.55,8.4-33.11,29.15-33.11h5.88V242h-8.09
	c-34.7,0-51.06,16.34-51.06,50.63v32.81c0,23.55-8.09,31.34-32.08,31.34v27.97c23.98,0,32.08,7.79,32.08,31.34v32.81
	c0,34.29,16.34,50.63,51.06,50.63h8.09v-20.75h-5.88c-20.75,0-29.15-9.56-29.15-33.11v-38.71
	C255.02,385.79,244.43,374.74,222.8,372.53z M476.22,369.02v3.51c-21.64,2.22-32.23,13.26-32.23,34.45v38.71
	c0,23.55-8.4,33.11-29.15,33.11h-5.88v20.75h8.09c34.72,0,51.06-16.34,51.06-50.63V416.1c0-23.55,8.09-31.34,32.08-31.34v-27.97
	c-23.98,0-32.08-7.79-32.08-31.34v-32.81c0-34.29-16.36-50.63-51.06-50.63h-8.09v20.75h5.88c20.75,0,29.15,9.56,29.15,33.11v38.71
	C444,355.75,454.59,366.8,476.22,369.02z"/>
<path class="st1" d="M75.67,54.45c3.38,3.38,3.39,8.86,0.02,12.24c-0.01,0.01-0.01,0.01-0.02,0.02l-54.48,54.47l54.48,54.47
	c3.38,3.38,3.38,8.87,0,12.26c-3.38,3.38-8.87,3.38-12.26,0L2.82,127.31c-3.38-3.38-3.39-8.86-0.02-12.24
	c0.01-0.01,0.01-0.01,0.02-0.02l60.59-60.59c3.38-3.38,8.86-3.39,12.24-0.02C75.66,54.44,75.67,54.45,75.67,54.45z M184.61,54.45
	c-3.38,3.38-3.39,8.86-0.02,12.24c0.01,0.01,0.01,0.01,0.02,0.02l54.48,54.47l-54.48,54.47c-3.38,3.38-3.38,8.87,0,12.26
	c3.38,3.38,8.87,3.38,12.26,0l60.59-60.59c3.38-3.38,3.39-8.86,0.02-12.24c-0.01-0.01-0.01-0.01-0.02-0.02l-60.59-60.59
	c-3.38-3.38-8.86-3.39-12.24-0.02C184.62,54.44,184.61,54.45,184.61,54.45z M167.31,0.37c4.56,1.41,7.12,6.26,5.71,10.82
	l-69.25,225.06c-1.58,4.51-6.53,6.88-11.04,5.3c-4.26-1.5-6.66-6.02-5.5-10.39L156.49,6.1c1.41-4.56,6.26-7.12,10.82-5.71V0.37z"/>
<text transform="matrix(1 0 0 1 269.5591 146.6055)" class="st0 st2 st3">HTML</text>
<text transform="matrix(1 0 0 1 16.332 395.7031)" class="st0 st2 st3">css</text>
</svg>
