<svg id="Ebene_1" data-name="Ebene 1" xmlns="http://www.w3.org/2000/svg" viewBox="0 0 652 617"><defs><style>.cls-1{fill:#353535;}.cls-2,.cls-3{fill:#fff;}.cls-2{fill-rule:evenodd;}</style></defs><rect class="cls-1" width="652" height="617"/><path class="cls-2" d="M611,471.31V227a40.71,40.71,0,0,0-40.71-40.71H522.57a122.09,122.09,0,0,1-86.31-35.79l-33.8-33.71a40.76,40.76,0,0,0-28.66-11.93H278.29a40.79,40.79,0,0,0-28.79,11.93l-33.71,33.71a122.12,122.12,0,0,1-86.36,35.79H81.71A40.71,40.71,0,0,0,41,227V471.31A40.71,40.71,0,0,0,81.71,512H570.29A40.71,40.71,0,0,0,611,471.31ZM81.71,145.59A81.42,81.42,0,0,0,.29,227h0V471.31A81.42,81.42,0,0,0,81.7,552.74H570.29a81.42,81.42,0,0,0,81.42-81.42h0V227a81.42,81.42,0,0,0-81.41-81.43H522.57A81.42,81.42,0,0,1,465,121.74L431.28,88a81.47,81.47,0,0,0-57.57-23.87H278.29A81.47,81.47,0,0,0,220.72,88L187,121.74a81.42,81.42,0,0,1-57.57,23.85Z"/><path class="cls-2" d="M326,410.29a101.79,101.79,0,1,0-101.78-101.8h0A101.78,101.78,0,0,0,326,410.29Z"/><path class="cls-3" d="M122.43,308.45A20.37,20.37,0,1,1,102,288.1h0A20.36,20.36,0,0,1,122.43,308.45Z"/></svg>