<svg xmlns="http://www.w3.org/2000/svg" viewBox="0 0 500 500"><defs><style>.cls-1{fill:#fff;}.cls-2,.cls-3{fill:#353535;}.cls-3{fill-rule:evenodd;}</style></defs><g id="Ebene_2" data-name="Ebene 2"><rect class="cls-1" width="500" height="500"/></g><g id="Ebene_1" data-name="Ebene 1"><path class="cls-2" d="M343.75,62.5H156.25A31.25,31.25,0,0,0,125,93.75v62.5H93.75V93.75a62.5,62.5,0,0,1,62.5-62.5h187.5a62.5,62.5,0,0,1,62.5,62.5v62.5H375V93.75A31.25,31.25,0,0,0,343.75,62.5Zm93.75,125H62.5a31.25,31.25,0,0,0-31.25,31.25V312.5A31.25,31.25,0,0,0,62.5,343.75H93.75V375H62.5A62.5,62.5,0,0,1,0,312.5V218.75a62.5,62.5,0,0,1,62.5-62.5h375a62.5,62.5,0,0,1,62.5,62.5V312.5A62.5,62.5,0,0,1,437.5,375H406.25V343.75H437.5a31.25,31.25,0,0,0,31.25-31.25V218.75A31.25,31.25,0,0,0,437.5,187.5Z"/><path class="cls-3" d="M343.75,281.25H156.25A31.25,31.25,0,0,0,125,312.5v93.75a31.25,31.25,0,0,0,31.25,31.25h187.5A31.25,31.25,0,0,0,375,406.25V312.5A31.25,31.25,0,0,0,343.75,281.25ZM156.25,250a62.5,62.5,0,0,0-62.5,62.5v93.75a62.5,62.5,0,0,0,62.5,62.5h187.5a62.5,62.5,0,0,0,62.5-62.5V312.5a62.5,62.5,0,0,0-62.5-62.5Z"/><path class="cls-2" d="M93.75,234.38a15.63,15.63,0,1,1-15.63-15.63A15.63,15.63,0,0,1,93.75,234.38Z"/></g></svg>