<svg xmlns="http://www.w3.org/2000/svg" viewBox="0 0 500.01 500"><defs><style>.cls-1{fill:#353535;}.cls-2{fill:#fff;fill-rule:evenodd;}</style></defs><g id="Ebene_2" data-name="Ebene 2"><rect class="cls-1" x="0.01" width="500" height="500"/></g><g id="Ebene_1" data-name="Ebene 1"><path class="cls-2" d="M312.13,52.93H32.28A10.77,10.77,0,0,0,21.52,63.7V257.43A10.77,10.77,0,0,0,32.28,268.2H312.13a10.77,10.77,0,0,0,10.76-10.77V63.7A10.77,10.77,0,0,0,312.13,52.93ZM32.28,31.41A32.29,32.29,0,0,0,0,63.7V257.43a32.29,32.29,0,0,0,32.29,32.29H312.13a32.29,32.29,0,0,0,32.29-32.29V63.7a32.29,32.29,0,0,0-32.29-32.29Z" transform="translate(0.01)"/><path class="cls-2" d="M64.57,106.75A10.77,10.77,0,0,1,75.34,96H269.07a10.77,10.77,0,1,1,0,21.53H75.34A10.77,10.77,0,0,1,64.57,106.75Zm0,53.81A10.77,10.77,0,0,1,75.34,149.8H269.07a10.77,10.77,0,1,1,0,21.53H75.34A10.77,10.77,0,0,1,64.57,160.56Zm0,53.82a10.77,10.77,0,0,1,10.77-10.76H204.5a10.76,10.76,0,0,1,0,21.52H75.34A10.77,10.77,0,0,1,64.57,214.38Z" transform="translate(0.01)"/><path class="cls-2" d="M256,255.05a30.51,30.51,0,0,1,30.51-30.51h183A30.51,30.51,0,0,1,500,255.05v183a30.5,30.5,0,0,1-30.51,30.5h-183A30.5,30.5,0,0,1,256,438.09Zm228.8,30.51h-61v45.76h61Zm0,61h-61v45.76h61Zm0,61h-61v45.76H469.5a15.25,15.25,0,0,0,15.25-15.25Zm-76.26,45.76V407.58h-61v45.76Zm-76.27,0V407.58h-61v30.51a15.25,15.25,0,0,0,15.25,15.25Zm-61-61h61V346.57h-61Zm0-61h61V285.56h-61Zm76.26-45.76v45.76h61V285.56Zm61,61h-61v45.76h61Z" transform="translate(0.01)"/><rect class="cls-1" x="126.09" y="162.7" width="234.67" height="175.13" rx="26.84"/><path class="cls-2" d="M121.69,188.61a30,30,0,0,1,30-30H331.9a30,30,0,0,1,30,30V308.73a30,30,0,0,1-30,30H151.72a30,30,0,0,1-30-30Zm30-15a15,15,0,0,0-15,15v3.26l105.11,63.06,105.1-63.06v-3.26a15,15,0,0,0-15-15Zm195.19,35.78-71.44,42.87,71.44,43.18V209.37Zm-.51,103.28L260.89,261l-19.08,11.46L222.71,261l-85.5,51.65a15,15,0,0,0,14.51,11.11H331.9A15,15,0,0,0,346.4,312.65ZM136.7,295.42l71.44-43.18L136.7,209.37v86Z" transform="translate(0.01)"/></g></svg>