<svg xmlns="http://www.w3.org/2000/svg" viewBox="0 0 500 505.4"><defs><style>.cls-1{fill:#353535;}.cls-2,.cls-3{fill:#fff;}.cls-3{fill-rule:evenodd;}</style></defs><g id="Ebene_2" data-name="Ebene 2"><rect class="cls-1" width="500" height="500"/></g><g id="Ebene_1" data-name="Ebene 1"><path class="cls-2" d="M221.36,321.15q3.1-6.19,3.1-18.6h49.6q0,12.4,3.1,18.6h9.3a6.2,6.2,0,1,1,0,12.4h-74.4a6.2,6.2,0,0,1,0-12.4Z"/><path class="cls-3" d="M323.54,191H174.86c-4,0-6.22,1-7.46,1.8a9.29,9.29,0,0,0-3.15,3.74,18,18,0,0,0-1.79,7v74.28c0,4,1,6.22,1.8,7.46a9.45,9.45,0,0,0,3.74,3.15,18.24,18.24,0,0,0,6.67,1.77h149c4,0,6.23-1,7.47-1.79a9.4,9.4,0,0,0,3.15-3.75,18.19,18.19,0,0,0,1.77-6.67V203.36c0-4-1-6.23-1.79-7.47a9.4,9.4,0,0,0-3.75-3.15,18.19,18.19,0,0,0-7-1.78Zm.11-12.4H174.86c-24.8,0-24.8,24.8-24.8,24.8v74.4c0,24.79,24.8,24.79,24.8,24.79H323.65c24.8,0,24.8-24.79,24.8-24.79v-74.4C348.45,178.56,323.65,178.56,323.65,178.56Z"/><path class="cls-3" d="M109.21,48.18A27.09,27.09,0,1,1,82.13,21.1,27.09,27.09,0,0,1,109.21,48.18ZM82.13,88.81A40.63,40.63,0,1,0,41.5,48.18,40.63,40.63,0,0,0,82.13,88.81Zm81.24,67.7c0,13.55-13.54,13.55-13.54,13.55H14.42S.88,170.06.88,156.51s13.54-54.16,81.25-54.16S163.37,143,163.37,156.51Zm-13.54,0c0-3.33-2.08-13.35-11.26-22.53-8.83-8.83-25.45-18-56.44-18s-47.62,9.21-56.44,18c-9.19,9.18-11.24,19.2-11.27,22.53Z"/><path class="cls-3" d="M149.56,383.53a27.09,27.09,0,1,1-27.09-27.08A27.08,27.08,0,0,1,149.56,383.53Zm-27.09,40.63a40.63,40.63,0,1,0-40.62-40.63A40.63,40.63,0,0,0,122.47,424.16Zm81.25,67.7c0,13.54-13.54,13.54-13.54,13.54H54.77s-13.54,0-13.54-13.54,13.54-54.16,81.24-54.16S203.72,478.32,203.72,491.86Zm-13.54-.05c0-3.33-2.09-13.35-11.27-22.53-8.83-8.83-25.44-18-56.44-18s-47.61,9.21-56.44,18c-9.18,9.18-11.24,19.2-11.26,22.53Z"/><path class="cls-3" d="M444.56,290.53a27.09,27.09,0,1,1-27.09-27.08A27.08,27.08,0,0,1,444.56,290.53Zm-27.09,40.63a40.63,40.63,0,1,0-40.62-40.63A40.63,40.63,0,0,0,417.47,331.16Zm81.25,67.7c0,13.54-13.54,13.54-13.54,13.54H349.77s-13.54,0-13.54-13.54,13.54-54.16,81.24-54.16S498.72,385.32,498.72,398.86Zm-13.54-.05c0-3.33-2.09-13.35-11.27-22.53-8.83-8.83-25.44-18-56.44-18s-47.61,9.21-56.44,18c-9.18,9.18-11.24,19.2-11.26,22.53Z"/></g></svg>