<svg xmlns="http://www.w3.org/2000/svg" viewBox="0 0 500 500"><defs><style>.cls-1{fill:#fff;}.cls-2,.cls-3{fill:#353535;}.cls-3{fill-rule:evenodd;}</style></defs><g id="Ebene_2" data-name="Ebene 2"><rect class="cls-1" width="500" height="500"/></g><g id="Ebene_1" data-name="Ebene 1"><path class="cls-2" d="M220.48,313.59q3.11-6.19,3.1-18.6h49.6q0,12.4,3.1,18.6h9.3a6.2,6.2,0,0,1,0,12.4h-74.4a6.2,6.2,0,0,1,0-12.4Z" transform="translate(1.08 1.08)"/><path class="cls-3" d="M322.66,183.4H174c-4,0-6.22,1-7.46,1.79a9.32,9.32,0,0,0-3.15,3.75,18.12,18.12,0,0,0-1.79,7v74.27c0,4,1,6.23,1.8,7.47a9.44,9.44,0,0,0,3.74,3.15,18.24,18.24,0,0,0,6.68,1.77h149c4,0,6.22-1,7.46-1.8a9.44,9.44,0,0,0,3.15-3.74,18.19,18.19,0,0,0,1.77-6.67V195.8c0-4-1-6.23-1.8-7.47a9.4,9.4,0,0,0-3.75-3.15,18.11,18.11,0,0,0-7-1.78Zm.12-12.4H174c-24.8,0-24.8,24.8-24.8,24.8v74.39C149.18,295,174,295,174,295h148.8c24.79,0,24.79-24.8,24.79-24.8V195.8C347.57,171,322.78,171,322.78,171Z" transform="translate(1.08 1.08)"/><path class="cls-3" d="M108.33,40.62a27.09,27.09,0,1,1-27.1-27.08h0A27.1,27.1,0,0,1,108.33,40.62ZM81.25,81.25A40.63,40.63,0,1,0,40.62,40.62h0A40.63,40.63,0,0,0,81.25,81.25Zm81.24,67.67c0,13.54-13.54,13.54-13.54,13.54H13.54S0,162.49,0,148.92,13.54,94.79,81.25,94.79,162.49,135.41,162.49,148.92Zm-13.57,0c0-3.33-2.08-13.35-11.26-22.53-8.83-8.83-25.45-18-56.44-18s-47.61,9.21-56.44,18c-9.18,9.18-11.24,19.2-11.27,22.53Z" transform="translate(1.08 1.08)"/><path class="cls-3" d="M148.68,376a27.09,27.09,0,1,1-27.13-27.05h0A27.08,27.08,0,0,1,148.68,376Zm-27.09,40.62A40.62,40.62,0,1,0,81,376h0a40.62,40.62,0,0,0,40.62,40.62Zm81.25,67.71c0,13.54-13.54,13.54-13.54,13.54H53.92s-13.54,0-13.54-13.54,13.54-54.17,81.21-54.17,81.25,40.63,81.25,54.17Zm-13.54-.05c0-3.34-2.09-13.36-11.27-22.54-8.83-8.83-25.44-18-56.44-18s-47.61,9.2-56.44,18c-9.18,9.21-11.23,19.21-11.23,22.54Z" transform="translate(1.08 1.08)"/><path class="cls-3" d="M443.68,283a27.09,27.09,0,1,1-27.13-27.05h0A27.08,27.08,0,0,1,443.68,283Zm-27.09,40.62A40.62,40.62,0,1,0,376,283h0a40.62,40.62,0,0,0,40.62,40.62Zm81.25,67.71c0,13.54-13.54,13.54-13.54,13.54H348.92s-13.54,0-13.54-13.54,13.54-54.17,81.24-54.17,81.22,40.63,81.22,54.17Zm-13.54-.05c0-3.34-2.09-13.36-11.27-22.54-8.83-8.83-25.44-18-56.44-18s-47.61,9.2-56.44,18c-9.18,9.21-11.23,19.21-11.23,22.54Z" transform="translate(1.08 1.08)"/></g></svg>