<?xml version="1.0" encoding="utf-8"?>
<!-- Generator: Adobe Illustrator 25.0.1, SVG Export Plug-In . SVG Version: 6.00 Build 0)  -->
<svg version="1.1" id="Ebene_1" xmlns="http://www.w3.org/2000/svg" xmlns:xlink="http://www.w3.org/1999/xlink" x="0px" y="0px"
	 viewBox="0 0 1920 689.5" style="enable-background:new 0 0 1920 689.5;" xml:space="preserve">
<style type="text/css">
	.st0{fill:#353535;}
	.st1{fill:none;stroke:#3C6E71;stroke-width:5;stroke-miterlimit:10;}
</style>
<g>
	<path class="st0" d="M842.9,245.5h-8.1L804,179.8h38.8l11.7-20.3H234.4c-1.3-21.8-19.4-39.1-41.6-39.1h-65.2
		c-22.2,0-40.3,17.3-41.6,39.1h-0.1H34.4c-19,0-34.4,15.4-34.4,34.4v34.4c0,19,15.4,34.4,34.4,34.4H86v319.5v107.4h148.5V582.2
		V262.7h618.3L842.9,245.5z M159.5,243.9c-18.1,0-32.8-14.7-32.8-32.8c0-18.1,14.7-32.8,32.8-32.8c18.1,0,32.8,14.7,32.8,32.8
		C192.3,229.2,177.6,243.9,159.5,243.9z M284.7,245.5l-30.8-65.7h60.4l30.8,65.7H284.7z M394.7,245.5L364,179.8h60.4l30.8,65.7
		H394.7z M504.8,245.5L474,179.8h60.4l30.8,65.7H504.8z M614.8,245.5L584,179.8h60.4l30.8,65.7H614.8z M724.8,245.5L694,179.8h60.4
		l30.8,65.7H724.8z"/>
	<path class="st0" d="M1889.3,159.5h-0.5h-70.9h-533.6l11.7,20.3h8.4l30.8,65.7H1296l-9.9,17.2h531.7h70.9h0.5
		c17,0,30.7-13.8,30.7-30.7v-41.7C1920,173.2,1906.2,159.5,1889.3,159.5z M1384.9,245.5l-30.8-65.7h60.4l30.8,65.7H1384.9z
		 M1494.9,245.5l-30.8-65.7h60.4l30.8,65.7H1494.9z M1604.9,245.5l-30.8-65.7h60.4l30.8,65.7H1604.9z M1715,245.5l-30.8-65.7h60.4
		l30.8,65.7H1715z M1825,242.3l-30.8-65.7h60.4l30.8,65.7H1825z"/>
</g>
<g>
	<g>
		<path class="st0" d="M1201.5,228.1V188c0-4.3,0.2-8.1,0.6-11.5l1.3-14l-40.6,65.6H1201.5z"/>
		<path class="st0" d="M1067.9,155.4c-19.4,0-29.2,18.2-29.2,54.7c0,16.5,2.1,29.8,6.2,39.9c4.2,10,11.6,15.1,22.5,15.1
			c7.3,0,13.1-2.3,17.6-6.8s7.5-10.9,9.1-19c1.6-8.1,2.4-19.4,2.4-33.8c0-11.9-2-23.2-5.9-34
			C1086.7,160.8,1079.1,155.4,1067.9,155.4z"/>
		<path class="st0" d="M949.6,228v-40.1c0-4.3,0.2-8.1,0.6-11.5l1.3-13.9L910.9,228H949.6z"/>
		<path class="st0" d="M1192.1,0H946.6L823.8,212.6l122.8,212.7h245.5l122.8-212.7L1192.1,0z M997.6,250.3h-21.5v33.1h-26.5v-33
			h-63.5v-19.2l63.5-96.1h26.5V228h21.5V250.3z M1117.3,247.9c-3.8,11-10,20-18.3,27c-8.4,7.2-18.9,10.7-31.5,10.7
			c-17.6,0-31.1-6.9-40.6-20.7c-9.5-13.8-14.3-31.3-14.3-52.6c0-23,5-41.5,14.9-55.5c10-14,23.3-21,40.1-21
			c12.1,0,22.3,3.3,30.7,9.8c8.3,6.6,14.6,15.7,18.7,27.4c4.1,11.7,6.1,22.6,6.1,32.8C1123.1,222.9,1121.2,236.9,1117.3,247.9z
			 M1227.9,250.3v33.1h-26.4v-33h-63.6v-19.2l63.5-96.1h26.5V228h21.5v22.3H1227.9z"/>
	</g>
	<polygon class="st1" points="1181.1,18 1293.4,212.4 1181.1,406.9 956.7,406.9 844.4,212.4 956.7,18 	"/>
</g>
</svg>
