<?xml version="1.0" encoding="utf-8"?>
<!-- Generator: Adobe Illustrator 25.0.1, SVG Export Plug-In . SVG Version: 6.00 Build 0)  -->
<svg version="1.1" id="Ebene_1" xmlns="http://www.w3.org/2000/svg" xmlns:xlink="http://www.w3.org/1999/xlink" x="0px" y="0px"
	 viewBox="0 0 1920 689.5" style="enable-background:new 0 0 1920 689.5;" xml:space="preserve">
<style type="text/css">
	.st0{fill:#353535;}
	.st1{fill:none;}
</style>
<g>
	<path class="st0" d="M1882.1,161.1h-0.5h-70.9h-533.6l11.7,20.3h8.4l30.8,65.7h-39.2l-9.9,17.2h531.7h70.9h0.5
		c17,0,30.7-13.8,30.7-30.7v-41.7C1912.8,174.8,1899,161.1,1882.1,161.1z M1377.7,247.1l-30.8-65.7h60.4l30.8,65.7H1377.7z
		 M1487.7,247.1l-30.8-65.7h60.4l30.8,65.7H1487.7z M1597.7,247.1l-30.8-65.7h60.4l30.8,65.7H1597.7z M1707.8,247.1l-30.8-65.7h60.4
		l30.8,65.7H1707.8z M1817.8,243.9l-30.8-65.7h60.4l30.8,65.7H1817.8z"/>
	<path class="st0" d="M850.2,245.5h-8.1l-30.8-65.7h38.8l11.7-20.3H241.7c-1.3-21.8-19.4-39.1-41.6-39.1h-65.2
		c-22.2,0-40.3,17.3-41.6,39.1h-0.1H41.7c-19,0-34.4,15.4-34.4,34.4v34.4c0,19,15.4,34.4,34.4,34.4h51.6v319.5v107.4h148.5V582.2
		V262.7h618.3L850.2,245.5z M166.8,243.9c-18.1,0-32.8-14.7-32.8-32.8s14.7-32.8,32.8-32.8s32.8,14.7,32.8,32.8
		S184.9,243.9,166.8,243.9z M292,245.5l-30.8-65.7h60.4l30.8,65.7H292z M402,245.5l-30.7-65.7h60.4l30.8,65.7H402z M512.1,245.5
		l-30.8-65.7h60.4l30.8,65.7H512.1z M622.1,245.5l-30.8-65.7h60.4l30.8,65.7H622.1z M732.1,245.5l-30.8-65.7h60.4l30.8,65.7H732.1z"
		/>
</g>
<g>
	<path class="st0" d="M1188.7,6.5L949.6,6.7L830.2,213.9l119.8,207.1l239.1-0.2l119.4-207.2L1188.7,6.5z M1181.2,407.3l-223.6,0.2
		l-112-193.6L957.4,20.1L1181,20l112,193.5L1181.2,407.3z"/>
	<g>
		<path class="st0" d="M1184.6,226.9l0-34.5c0-3.7,0.2-7,0.5-9.9l1.1-12.1l-34.9,56.5L1184.6,226.9z"/>
		<path class="st0" d="M1068.2,166.5c-16.7,0-25.1,15.7-25.1,47.1c0,14.2,1.8,25.6,5.4,34.3c3.6,8.6,10,13,19.4,13
			c6.3,0,11.3-2,15.1-5.9c3.9-3.9,6.4-9.4,7.8-16.4c1.4-7,2.1-16.7,2-29.1c0-10.2-1.7-20-5.1-29.3
			C1084.4,171.1,1077.9,166.5,1068.2,166.5z"/>
		<path class="st0" d="M967.8,227l0-34.5c0-3.7,0.2-7,0.5-9.9l1.1-12L934.4,227L967.8,227z"/>
		<path class="st0" d="M1174.8,30.6l-211.3,0.2L858,213.8l105.8,183l211.3-0.2l105.6-183.2L1174.8,30.6z M1007.6,246.2l-18.5,0
			l0,28.5l-22.8,0l0-28.4l-54.7,0l0-16.5l54.6-82.8l22.8,0l0.1,80l18.5,0L1007.6,246.2z M1110.6,244c-3.3,9.5-8.6,17.2-15.7,23.3
			c-7.2,6.2-16.3,9.2-27.1,9.2c-15.1,0-26.8-5.9-35-17.8c-8.2-11.9-12.3-26.9-12.3-45.3c0-19.8,4.3-35.7,12.8-47.8
			c8.6-12.1,20-18.1,34.5-18.1c10.4,0,19.2,2.8,26.4,8.4c7.1,5.7,12.6,13.5,16.1,23.6c3.5,10.1,5.3,19.4,5.3,28.2
			C1115.6,222.5,1114,234.6,1110.6,244z M1205.8,246l0,28.5l-22.7,0l0-28.4l-54.7,0l0-16.5l54.6-82.8l22.8,0l0.1,80l18.5,0l0,19.2
			L1205.8,246z"/>
	</g>
</g>
<line class="st1" x1="371.3" y1="575.8" x2="1358.5" y2="575.8"/>
<line class="st1" x1="316.7" y1="294.7" x2="1303.9" y2="294.7"/>
</svg>
