<?xml version="1.0" encoding="utf-8"?>
<!-- Generator: Adobe Illustrator 24.2.1, SVG Export Plug-In . SVG Version: 6.00 Build 0)  -->
<svg version="1.1" id="Ebene_1" xmlns="http://www.w3.org/2000/svg" xmlns:xlink="http://www.w3.org/1999/xlink" x="0px" y="0px"
	 viewBox="0 0 500 500" style="enable-background:new 0 0 500 500;" xml:space="preserve">
<style type="text/css">
	.st0{fill:none;}
	.st1{fill:#353535;}
</style>
<rect x="42.4" y="240.4" class="st0" width="415.3" height="73.5"/>
<g>
	<path class="st1" d="M292.6,274.3c-2.5-2.4-5.3-3.5-8.5-3.5s-6,1.2-8.5,3.6c-2.5,2.4-3.7,5.8-3.7,10.2c0,4.4,1.2,7.8,3.7,10.1
		c2.5,2.4,5.3,3.6,8.5,3.6s6-1.2,8.5-3.6c2.5-2.4,3.7-5.8,3.7-10.2C296.3,280.1,295.1,276.7,292.6,274.3z"/>
	<path class="st1" d="M443.4,179h-12v-58c0-0.4-0.1-0.7-0.1-1.1c0-2.3-0.8-4.6-2.3-6.3L332.5,3.5c0,0-0.1,0-0.1-0.1
		c-0.6-0.6-1.2-1.2-2-1.6c-0.2-0.1-0.4-0.3-0.6-0.4c-0.6-0.3-1.3-0.6-1.9-0.8c-0.2-0.1-0.3-0.1-0.5-0.2c-0.7-0.2-1.5-0.3-2.3-0.3
		H88.2c-10.8,0-19.6,8.8-19.6,19.6V179h-12c-15.5,0-28,12.5-28,28v145.7c0,15.5,12.5,28,28,28h12v99.8c0,10.8,8.8,19.6,19.6,19.6
		h323.5c10.8,0,19.6-8.8,19.6-19.6v-99.8h12c15.5,0,28-12.5,28-28V207C471.4,191.5,458.9,179,443.4,179z M88.2,475.2v-94.4h323.5
		l0.1,94.4H88.2z M110.7,312.4l24.4-70.4h20.8l24.3,70.4h-18.3l-3.9-11.8h-25.2l-3.9,11.8H110.7z M222.6,256
		c6.4,0,11.6,2.1,15.5,6.4c4,4.3,6,10.1,6,17.4v32.6h-17v-30.3c0-3.6-1-6.4-2.9-8.4c-1.9-2-4.5-2.9-7.9-2.9c-3.3,0-5.9,1-7.8,2.9
		c-1.9,2-2.9,4.8-2.9,8.4v30.3h-17.1v-55.8h17.1v8.2C209.2,258.9,214.9,256,222.6,256z M279.7,313.1c-6.9,0-12.9-2.7-17.8-8
		c-4.9-5.3-7.4-12.2-7.4-20.5c0-8.3,2.5-15.2,7.4-20.5c4.9-5.4,11-8.1,18.1-8.1c7.1,0,12.5,2.6,16.3,7.9v-25.5h17.1v74h-17.1v-8.1
		C292.2,310.1,286.6,313.1,279.7,313.1z M361.5,256v17.4h-4.2c-3.9,0-6.9,0.9-8.9,2.8c-2,1.9-2.9,5.1-2.9,9.8v26.4h-17.1v-55.8h17.1
		V267C349.5,259.6,354.8,256,361.5,256z M386.4,250.3c-1.9,1.9-4.3,2.9-7.1,2.9s-5.2-1-7.1-2.9c-1.9-1.9-2.9-4.3-2.9-7.2
		c0-2.8,1-5.2,2.9-7.2c1.9-1.9,4.3-2.9,7.1-2.9s5.2,1,7.1,2.9c1.9,1.9,2.9,4.3,2.9,7.2C389.3,246,388.3,248.3,386.4,250.3z
		 M387.9,256.6v55.8h-17.1v-55.8H387.9z M88.2,179V19.7h227.1V120c0,5.4,4.4,9.8,9.8,9.8h86.6l0.1,49.2H88.2z"/>
	<polygon class="st1" points="145.4,262.6 137.1,287.6 153.7,287.6 	"/>
</g>
</svg>
