<?xml version="1.0" encoding="utf-8"?>
<!-- Generator: Adobe Illustrator 24.2.1, SVG Export Plug-In . SVG Version: 6.00 Build 0)  -->
<svg version="1.1" id="Ebene_1" xmlns="http://www.w3.org/2000/svg" xmlns:xlink="http://www.w3.org/1999/xlink" x="0px" y="0px"
	 viewBox="0 0 500 500" style="enable-background:new 0 0 500 500;" xml:space="preserve">
<style type="text/css">
	.st0{fill:none;}
	.st1{fill:#353535;}
</style>
<rect x="42.3" y="197.5" class="st0" width="415.3" height="163"/>
<g>
	<path class="st1" d="M223.4,290.4c3,0,5.6-1.1,7.7-3.4c2.1-2.3,3.2-5.5,3.2-9.8s-1.1-7.5-3.3-9.7c-2.2-2.2-4.8-3.3-7.8-3.3
		s-5.6,1.1-7.8,3.3c-2.2,2.2-3.2,5.5-3.2,9.7s1.1,7.5,3.3,9.8C217.8,289.3,220.4,290.4,223.4,290.4z"/>
	<path class="st1" d="M162,290.4c3,0,5.6-1.1,7.7-3.4c2.1-2.3,3.2-5.5,3.2-9.8s-1.1-7.5-3.3-9.7c-2.2-2.2-4.8-3.3-7.8-3.3
		s-5.6,1.1-7.8,3.3c-2.2,2.2-3.2,5.5-3.2,9.7s1.1,7.5,3.3,9.8C156.4,289.3,159,290.4,162,290.4z"/>
	<path class="st1" d="M67.2,262.2c1.4-1.2,2.1-3,2.1-5.3c0-2.3-0.7-4.1-2.1-5.4c-1.4-1.2-3.3-1.8-5.6-1.8H51.1V264h10.5
		C63.9,264,65.8,263.4,67.2,262.2z"/>
	<path class="st1" d="M63.4,276.2H51.1v15h12.1c2.2,0,4-0.7,5.5-2c1.4-1.3,2.2-3.1,2.2-5.5c0-2.3-0.7-4.2-2.1-5.5
		C67.4,276.9,65.6,276.2,63.4,276.2z"/>
	<path class="st1" d="M443.4,178.9h-12V121c0-0.4-0.1-0.7-0.1-1.1c0-2.3-0.8-4.6-2.3-6.3L332.6,3.3c0,0-0.1,0-0.1-0.1
		c-0.6-0.6-1.2-1.2-2-1.6c-0.2-0.1-0.4-0.3-0.6-0.4c-0.6-0.3-1.3-0.6-1.9-0.8c-0.2-0.1-0.3-0.1-0.5-0.2C326.7,0.1,326,0,325.2,0
		H88.3C77.5,0,68.7,8.8,68.7,19.6v159.2h-12c-15.5,0-28,12.5-28,28v145.7c0,15.5,12.6,28,28,28h12v99.8c0,10.8,8.8,19.6,19.6,19.6
		h323.5c10.8,0,19.6-8.8,19.6-19.6v-99.8h12c15.5,0,28-12.5,28-28V206.9C471.5,191.4,458.9,178.9,443.4,178.9z M81.4,298.8
		c-3.9,3.1-9.2,4.7-16.1,4.7H35v-66h28.7c6.7,0,12,1.6,16,4.9c4,3.3,6,7.4,6,12.4c0,7.5-4.4,12.5-13.1,15.1c4.4,0.6,8,2.5,10.6,5.5
		c2.6,3.1,3.9,6.7,3.9,10.8C87.2,291.6,85.3,295.7,81.4,298.8z M411.8,475.1H88.3v-94.4h323.5V475.1z M129.5,250.5v16.4h-3.9
		c-3.7,0-6.5,0.9-8.3,2.6c-1.8,1.8-2.8,4.8-2.8,9.2v24.8H98.4V251h16.1v9.8C118.2,253.9,123.2,250.5,129.5,250.5z M134.5,277.2
		c0-8.1,2.6-14.6,7.9-19.4c5.3-4.9,11.8-7.3,19.6-7.3c7.8,0,14.3,2.4,19.5,7.3c5.2,4.9,7.8,11.3,7.8,19.4s-2.6,14.6-7.8,19.6
		c-5.2,5-11.7,7.4-19.5,7.4c-7.8,0-14.3-2.5-19.6-7.4C137.1,291.8,134.5,285.3,134.5,277.2z M195.9,277.2c0-8.1,2.6-14.6,7.9-19.4
		c5.3-4.9,11.8-7.3,19.6-7.3c7.8,0,14.3,2.4,19.5,7.3c5.2,4.9,7.8,11.3,7.8,19.4s-2.6,14.6-7.8,19.6c-5.2,5-11.7,7.4-19.5,7.4
		c-7.8,0-14.3-2.5-19.6-7.4C198.5,291.8,195.9,285.3,195.9,277.2z M293.3,251H315l-22.5,26.8l22.5,25.7h-21.3l-16.5-21v21H261v-69.6
		h16.1v39L293.3,251z M322.4,303.5v-69.6h16.1v69.6H322.4z M345.9,251h18.2l11.7,34.3l12.8-34.3h16.8l-33.5,77.5h-16.8l11.2-26
		L345.9,251z M411.8,178.9H88.3V19.6h227.1v100.3c0,5.4,4.4,9.8,9.8,9.8h86.6L411.8,178.9z M465,303.5h-16V275c0-3.4-0.9-6-2.7-7.8
		c-1.8-1.8-4.2-2.8-7.4-2.8c-3.1,0-5.6,0.9-7.4,2.8c-1.8,1.8-2.7,4.5-2.7,7.8v28.5h-16.1V251h16.1v7.7c3.3-5.5,8.6-8.3,15.9-8.3
		c6,0,10.9,2,14.6,6c3.7,4,5.6,9.5,5.6,16.4V303.5z"/>
</g>
</svg>
