<?xml version="1.0" encoding="utf-8"?>
<!-- Generator: Adobe Illustrator 24.2.1, SVG Export Plug-In . SVG Version: 6.00 Build 0)  -->
<svg version="1.1" id="Ebene_1" xmlns="http://www.w3.org/2000/svg" xmlns:xlink="http://www.w3.org/1999/xlink" x="0px" y="0px"
	 viewBox="0 0 500 500" style="enable-background:new 0 0 500 500;" xml:space="preserve">
<style type="text/css">
	.st0{fill:none;}
	.st1{fill:#353535;}
</style>
<rect x="42.4" y="240.4" class="st0" width="415.3" height="73.5"/>
<g>
	<path class="st1" d="M258.5,280.3c-2.5-2.4-5.3-3.5-8.5-3.5c-3.2,0-6,1.2-8.5,3.6c-2.5,2.4-3.7,5.8-3.7,10.2
		c0,4.4,1.2,7.8,3.7,10.1c2.5,2.4,5.3,3.6,8.5,3.6c3.2,0,6-1.2,8.5-3.6c2.5-2.4,3.7-5.8,3.7-10.2C262.2,286.1,261,282.7,258.5,280.3
		z"/>
	<path class="st1" d="M192.3,279c-2-1.6-4.4-2.5-7.1-2.5c-2.7,0-5,0.8-6.9,2.5c-1.9,1.6-3,3.8-3.5,6.3h20.9
		C195.4,282.8,194.3,280.7,192.3,279z"/>
	<path class="st1" d="M443.4,179h-12v-58c0-0.4-0.1-0.7-0.1-1.1c0-2.3-0.8-4.6-2.3-6.3L332.6,3.5c0,0-0.1,0-0.1-0.1
		c-0.6-0.6-1.2-1.2-2-1.6c-0.2-0.1-0.4-0.3-0.6-0.4c-0.6-0.3-1.3-0.6-1.9-0.8c-0.2-0.1-0.3-0.1-0.5-0.2c-0.7-0.2-1.5-0.3-2.3-0.3
		H88.3c-10.8,0-19.6,8.8-19.6,19.6V179h-12c-15.5,0-28,12.5-28,28v145.7c0,15.5,12.6,28,28,28h12v99.8c0,10.8,8.8,19.6,19.6,19.6
		h323.5c10.8,0,19.6-8.8,19.6-19.6v-99.8h12c15.5,0,28-12.5,28-28V207C471.4,191.5,458.9,179,443.4,179z M88.3,19.7h227.1V120
		c0,5.4,4.4,9.8,9.8,9.8h86.6l0,49.2H88.3V19.7z M352.3,256.3c-1.9,1.9-4.3,2.9-7.1,2.9s-5.2-1-7.1-2.9c-1.9-1.9-2.9-4.3-2.9-7.2
		c0-2.8,1-5.2,2.9-7.2c1.9-1.9,4.3-2.9,7.1-2.9s5.2,1,7.1,2.9c1.9,1.9,2.9,4.3,2.9,7.2C355.2,252,354.2,254.3,352.3,256.3z
		 M353.8,262.6v55.8h-17.1v-55.8H353.8z M327.4,262v17.4h-4.2c-3.9,0-6.9,0.9-8.8,2.8c-2,1.9-3,5.1-3,9.8v26.4h-17.1v-55.8h17.1V273
		C315.4,265.6,320.7,262,327.4,262z M245.6,319.1c-6.9,0-12.9-2.7-17.8-8c-4.9-5.3-7.4-12.2-7.4-20.5c0-8.3,2.5-15.2,7.4-20.5
		c4.9-5.4,11-8.1,18.1-8.1c7.1,0,12.5,2.6,16.4,7.9v-25.5h17.1v74h-17.1v-8.1C258.1,316.1,252.5,319.1,245.6,319.1z M178,302.1
		c1.9,1.6,3.9,2.3,6,2.3c2.2,0,3.8-0.2,4.9-0.6c1.1-0.4,1.9-0.9,2.4-1.3s1.1-1.2,1.9-2.2h18.5c-1.6,5.6-4.8,10.1-9.6,13.5
		c-4.8,3.4-10.5,5.2-17.1,5.2c-8.1,0-14.8-2.6-20-7.9c-5.2-5.2-7.8-12.2-7.8-20.8c0-8.7,2.6-15.6,7.8-20.7
		c5.2-5.1,11.9-7.7,20.1-7.7c8.2,0,15,2.5,20.4,7.6c5.4,5.1,8.1,12.1,8.1,21.1c0,1.9-0.1,3.7-0.4,5.4h-38.4
		C175,298.5,176.1,300.6,178,302.1z M172.9,258.8V247l24.1-11.6v13.3L172.9,258.8z M80.8,283.1c0-10.4,3.5-19,10.5-25.8
		c7-6.8,15.5-10.2,25.5-10.2c7.8,0,14.7,2.1,20.8,6.2c6.1,4.1,10.3,9.9,12.7,17.2h-20.4c-2.7-5.1-6.9-7.7-12.8-7.7
		c-5.9,0-10.5,1.8-13.9,5.5c-3.4,3.7-5.1,8.6-5.1,14.7c0,6.1,1.7,11,5.1,14.7c3.4,3.7,8,5.5,13.9,5.5c5.9,0,10.1-2.6,12.8-7.7h20.4
		c-2.4,7.3-6.6,13.1-12.7,17.2c-6.1,4.1-13,6.2-20.8,6.2c-10.1,0-18.6-3.4-25.5-10.1C84.3,302.1,80.8,293.5,80.8,283.1z
		 M411.8,475.2H88.3v-94.4h323.5V475.2z M384.7,300.6c1.8,2.6,4.3,3.8,7.8,3.8c2.1,0,3.8-0.4,5-1.1c1.2-0.7,2.3-2,3.2-3.9h18.5
		c-1.5,6-4.7,10.8-9.5,14.3c-4.8,3.5-10.5,5.3-17.2,5.3c-8.2,0-14.9-2.6-20-7.8c-5.2-5.2-7.8-12.1-7.8-20.8c0-8.7,2.6-15.6,7.8-20.8
		c5.2-5.2,11.8-7.8,20-7.8c6.8,0,12.6,1.7,17.3,5.1c4.7,3.4,7.9,8.2,9.4,14.4h-18.5c-1.6-3.3-4.2-5-7.9-5c-3.6,0-6.3,1.3-8.1,3.9
		c-1.8,2.6-2.7,6-2.7,10.1C382.1,294.7,383,298.1,384.7,300.6z"/>
</g>
</svg>
