<?xml version="1.0" encoding="utf-8"?>
<!-- Generator: Adobe Illustrator 24.2.1, SVG Export Plug-In . SVG Version: 6.00 Build 0)  -->
<svg version="1.1" id="Ebene_1" xmlns="http://www.w3.org/2000/svg" xmlns:xlink="http://www.w3.org/1999/xlink" x="0px" y="0px"
	 viewBox="0 0 500 500" style="enable-background:new 0 0 500 500;" xml:space="preserve">
<style type="text/css">
	.st0{fill:none;}
	.st1{fill:#353535;}
</style>
<rect x="42.4" y="240.4" class="st0" width="415.3" height="73.5"/>
<g>
	<path class="st1" d="M186.4,273.3c-2.5-2.4-5.3-3.5-8.5-3.5s-6,1.2-8.5,3.6c-2.5,2.4-3.7,5.8-3.7,10.2c0,4.4,1.2,7.8,3.7,10.1
		c2.5,2.4,5.3,3.6,8.5,3.6s6-1.2,8.5-3.6c2.5-2.4,3.7-5.8,3.7-10.2C190.1,279.1,188.9,275.7,186.4,273.3z"/>
	<path class="st1" d="M326.2,273.3c-2.5-2.4-5.3-3.5-8.5-3.5s-6,1.2-8.5,3.6c-2.5,2.4-3.7,5.8-3.7,10.2c0,4.4,1.2,7.8,3.7,10.1
		c2.5,2.4,5.3,3.6,8.5,3.6s6-1.2,8.5-3.6c2.5-2.4,3.7-5.8,3.7-10.2C329.9,279.1,328.7,275.7,326.2,273.3z"/>
	<path class="st1" d="M120.2,272c-2-1.6-4.4-2.5-7.1-2.5c-2.7,0-5,0.8-6.9,2.5c-1.9,1.6-3,3.8-3.5,6.3h20.9
		C123.3,275.8,122.2,273.7,120.2,272z"/>
	<path class="st1" d="M443.4,179h-12v-58c0-0.4-0.1-0.7-0.1-1.1c0-2.3-0.8-4.6-2.3-6.3L332.6,3.5c0,0-0.1,0-0.1-0.1
		c-0.6-0.6-1.2-1.2-2-1.6c-0.2-0.1-0.4-0.3-0.6-0.4c-0.6-0.3-1.3-0.6-1.9-0.8c-0.2-0.1-0.3-0.1-0.5-0.2c-0.7-0.2-1.5-0.3-2.3-0.3
		H88.3c-10.8,0-19.6,8.8-19.6,19.6V179h-12c-15.5,0-28,12.5-28,28v145.7c0,15.5,12.6,28,28,28h12v99.8c0,10.8,8.8,19.6,19.6,19.6
		h323.5c10.8,0,19.6-8.8,19.6-19.6v-99.8h12c15.5,0,28-12.5,28-28V207C471.4,191.5,458.9,179,443.4,179z M88.3,19.7h227.1V120
		c0,5.4,4.4,9.8,9.8,9.8h86.6l0,49.2H88.3V19.7z M395.1,255v17.4h-4.2c-3.9,0-6.9,0.9-8.9,2.8c-2,1.9-3,5.1-3,9.8v26.4H362v-55.8
		h17.1V266C383.1,258.6,388.4,255,395.1,255z M313.3,312.1c-6.9,0-12.9-2.7-17.8-8c-4.9-5.3-7.4-12.2-7.4-20.5
		c0-8.3,2.5-15.2,7.4-20.5c4.9-5.4,11-8.1,18-8.1c7.1,0,12.6,2.6,16.4,7.9v-25.5H347v74h-17.1v-8.1
		C325.8,309.1,320.2,312.1,313.3,312.1z M257.8,272.7c-1.9-2-4.5-2.9-7.8-2.9c-3.3,0-5.9,1-7.8,2.9c-1.9,2-2.9,4.8-2.9,8.4v30.3
		h-17.1v-55.8h17.1v8.2c3.5-5.9,9.2-8.8,16.9-8.8c6.4,0,11.6,2.1,15.5,6.4c4,4.3,6,10.1,6,17.4v32.6h-17v-30.3
		C260.7,277.5,259.7,274.7,257.8,272.7z M173.5,312.1c-6.9,0-12.9-2.7-17.8-8c-4.9-5.3-7.4-12.2-7.4-20.5c0-8.3,2.5-15.2,7.4-20.5
		c4.9-5.4,11-8.1,18.1-8.1s12.5,2.6,16.4,7.9v-7.3h17.1v55.8h-17.1v-8.1C186,309.1,180.4,312.1,173.5,312.1z M79.7,311.4H41.3v-70.2
		h17.1v57.2h21.3V311.4z M85.1,283.4c0-8.7,2.6-15.6,7.8-20.7c5.2-5.1,11.9-7.7,20.1-7.7c8.2,0,15,2.5,20.4,7.6
		c5.4,5.1,8.1,12.1,8.1,21.1c0,1.9-0.1,3.7-0.4,5.4h-38.4c0.3,2.5,1.4,4.5,3.3,6c1.9,1.6,3.9,2.3,6,2.3c2.2,0,3.8-0.2,4.9-0.6
		c1.1-0.4,1.9-0.9,2.4-1.3s1.1-1.2,1.9-2.2h18.5c-1.6,5.6-4.8,10.1-9.6,13.5c-4.8,3.4-10.5,5.2-17.1,5.2c-8.1,0-14.8-2.6-20-7.9
		C87.7,299,85.1,292,85.1,283.4z M411.8,475.2H88.3v-94.4h323.5V475.2z M450.4,304.2c-5.5,5.3-12.4,7.9-20.7,7.9
		c-8.3,0-15.2-2.6-20.8-7.9c-5.6-5.3-8.5-12.2-8.5-20.8s2.8-15.5,8.4-20.7c5.6-5.2,12.5-7.8,20.8-7.8c8.3,0,15.2,2.6,20.8,7.8
		c5.6,5.2,8.3,12.1,8.3,20.7S455.9,298.9,450.4,304.2z"/>
	<path class="st1" d="M429.5,269.6c-3.2,0-5.9,1.2-8.3,3.5c-2.3,2.4-3.4,5.8-3.4,10.3c0,4.5,1.2,8,3.5,10.4c2.4,2.4,5.1,3.6,8.3,3.6
		s5.9-1.2,8.2-3.6c2.3-2.4,3.4-5.9,3.4-10.4c0-4.5-1.2-8-3.5-10.3C435.5,270.8,432.7,269.6,429.5,269.6z"/>
</g>
</svg>
