<?xml version="1.0" encoding="utf-8"?>
<!-- Generator: Adobe Illustrator 24.2.1, SVG Export Plug-In . SVG Version: 6.00 Build 0)  -->
<svg version="1.1" id="Ebene_1" xmlns="http://www.w3.org/2000/svg" xmlns:xlink="http://www.w3.org/1999/xlink" x="0px" y="0px"
	 viewBox="0 0 500 500" style="enable-background:new 0 0 500 500;" xml:space="preserve">
<style type="text/css">
	.st0{fill:none;}
	.st1{fill:#353535;}
</style>
<rect x="42.4" y="240.4" class="st0" width="415.3" height="73.5"/>
<g>
	<path class="st1" d="M206.7,278.3c-2.5-2.4-5.3-3.5-8.5-3.5s-6,1.2-8.5,3.6c-2.5,2.4-3.7,5.8-3.7,10.2c0,4.4,1.2,7.8,3.7,10.1
		c2.5,2.4,5.3,3.6,8.5,3.6s6-1.2,8.5-3.6c2.5-2.4,3.7-5.8,3.7-10.2C210.4,284.1,209.2,280.7,206.7,278.3z"/>
	<path class="st1" d="M443.4,179h-12v-58c0-0.4-0.1-0.7-0.1-1.1c0-2.3-0.8-4.6-2.3-6.3L332.6,3.5c0,0-0.1,0-0.1-0.1
		c-0.6-0.6-1.2-1.2-2-1.6c-0.2-0.1-0.4-0.3-0.6-0.4c-0.6-0.3-1.3-0.6-1.9-0.8c-0.2-0.1-0.3-0.1-0.5-0.2c-0.7-0.2-1.5-0.3-2.3-0.3
		H88.3c-10.8,0-19.6,8.8-19.6,19.6V179h-12c-15.5,0-28,12.5-28,28v145.7c0,15.5,12.6,28,28,28h12v99.8c0,10.8,8.8,19.6,19.6,19.6
		h323.5c10.8,0,19.6-8.8,19.6-19.6v-99.8h12c15.5,0,28-12.5,28-28V207C471.4,191.5,458.9,179,443.4,179z M411.8,475.2H88.3v-94.4
		h323.5V475.2z M98,246.2h19.4l13.5,31.7l13.4-31.7h19.4l-24.3,47.6v22.6h-17.1v-22.6L98,246.2z M193.8,317.1
		c-6.9,0-12.9-2.7-17.8-8c-4.9-5.3-7.4-12.2-7.4-20.5c0-8.3,2.5-15.2,7.4-20.5c4.9-5.4,11-8.1,18.1-8.1s12.5,2.6,16.4,7.9v-7.3h17.1
		v55.8h-17.1v-8.1C206.3,314.1,200.7,317.1,193.8,317.1z M276.5,260c6.4,0,11.6,2.1,15.5,6.4c4,4.3,6,10.1,6,17.4v32.6h-17v-30.3
		c0-3.6-1-6.4-2.8-8.4c-1.9-2-4.5-2.9-7.9-2.9c-3.3,0-5.9,1-7.8,2.9c-1.9,2-2.8,4.8-2.8,8.4v30.3h-17.1v-55.8h17.1v8.2
		C263.1,262.9,268.8,260,276.5,260z M328.1,254.3c-1.9,1.9-4.3,2.9-7.1,2.9s-5.2-1-7.1-2.9s-2.9-4.3-2.9-7.2c0-2.8,1-5.2,2.9-7.2
		c1.9-1.9,4.3-2.9,7.1-2.9s5.2,1,7.1,2.9c1.9,1.9,2.9,4.3,2.9,7.2C331,250,330,252.3,328.1,254.3z M329.6,260.6v55.8h-17.1v-55.8
		H329.6z M379,260.6h23l-23.9,28.5l23.9,27.3h-22.7l-17.6-22.3v22.3h-17.1v-74h17.1v41.5L379,260.6z M411.8,179H88.3V19.7h227.1V120
		c0,5.4,4.4,9.8,9.8,9.8h86.6L411.8,179z"/>
</g>
</svg>
