<?xml version="1.0" encoding="utf-8"?>
<!-- Generator: Adobe Illustrator 24.2.1, SVG Export Plug-In . SVG Version: 6.00 Build 0)  -->
<svg version="1.1" id="Ebene_1" xmlns="http://www.w3.org/2000/svg" xmlns:xlink="http://www.w3.org/1999/xlink" x="0px" y="0px"
	 viewBox="0 0 500 500" style="enable-background:new 0 0 500 500;" xml:space="preserve">
<style type="text/css">
	.st0{fill:#353535;}
	.st1{fill-rule:evenodd;clip-rule:evenodd;fill:#353535;}
	.st2{font-family:'Poppins';}
	.st3{font-size:80px;}
</style>
<path class="st0" d="M222.8,372.5V369c21.6-2.2,32.2-13.2,32.2-34.5v-38.7c0-23.5,8.4-33.1,29.1-33.1h5.9V242H282
	c-34.7,0-51.1,16.3-51.1,50.6v32.8c0,23.5-8.1,31.3-32.1,31.3v28c24,0,32.1,7.8,32.1,31.3v32.8c0,34.3,16.3,50.6,51.1,50.6h8.1
	v-20.8h-5.9c-20.8,0-29.1-9.6-29.1-33.1V407C255,385.8,244.4,374.7,222.8,372.5z M476.2,369v3.5c-21.6,2.2-32.2,13.3-32.2,34.5v38.7
	c0,23.5-8.4,33.1-29.1,33.1H409v20.8h8.1c34.7,0,51.1-16.3,51.1-50.6v-32.8c0-23.5,8.1-31.3,32.1-31.3v-28c-24,0-32.1-7.8-32.1-31.3
	v-32.8c0-34.3-16.4-50.6-51.1-50.6H409v20.8h5.9c20.8,0,29.1,9.6,29.1,33.1v38.7C444,355.8,454.6,366.8,476.2,369z"/>
<path class="st1" d="M75.7,54.5c3.4,3.4,3.4,8.9,0,12.2c0,0,0,0,0,0l-54.5,54.5l54.5,54.5c3.4,3.4,3.4,8.9,0,12.3
	c-3.4,3.4-8.9,3.4-12.3,0L2.8,127.3c-3.4-3.4-3.4-8.9,0-12.2c0,0,0,0,0,0l60.6-60.6C66.8,51.1,72.3,51.1,75.7,54.5
	C75.7,54.4,75.7,54.5,75.7,54.5z M184.6,54.5c-3.4,3.4-3.4,8.9,0,12.2c0,0,0,0,0,0l54.5,54.5l-54.5,54.5c-3.4,3.4-3.4,8.9,0,12.3
	c3.4,3.4,8.9,3.4,12.3,0l60.6-60.6c3.4-3.4,3.4-8.9,0-12.2c0,0,0,0,0,0l-60.6-60.6C193.5,51.1,188,51.1,184.6,54.5
	C184.6,54.4,184.6,54.5,184.6,54.5z M167.3,0.4c4.6,1.4,7.1,6.3,5.7,10.8l-69.3,225.1c-1.6,4.5-6.5,6.9-11,5.3
	c-4.3-1.5-6.7-6-5.5-10.4L156.5,6.1C157.9,1.5,162.8-1,167.3,0.4L167.3,0.4z"/>
<text transform="matrix(1.0221 0 0 1 269.5586 148.3171)" class="st0 st2 st3">HTML</text>
<text transform="matrix(1 0 0 1 16.332 395.7031)" class="st0 st2 st3">CSS</text>
</svg>
