<?xml version="1.0" encoding="utf-8"?>
<!-- Generator: Adobe Illustrator 24.2.1, SVG Export Plug-In . SVG Version: 6.00 Build 0)  -->
<svg version="1.1" id="Ebene_1" xmlns="http://www.w3.org/2000/svg" xmlns:xlink="http://www.w3.org/1999/xlink" x="0px" y="0px"
	 viewBox="0 0 500 500" style="enable-background:new 0 0 500 500;" xml:space="preserve">
<style type="text/css">
	.st0{fill:#353535;}
	.st1{fill:#FFFFFF;}
	.st2{fill-rule:evenodd;clip-rule:evenodd;fill:#FFFFFF;}
	.st3{fill:none;}
</style>
<g>
	<rect x="-41.5" y="-12.5" class="st0" width="612" height="538"/>
	<path d="M570-12v537H-41V-12H570 M571-13H-42v539h613V-13L571-13z"/>
</g>
<path class="st1" d="M222.7,372.9v-3.5c21.6-2.2,32.2-13.2,32.2-34.5v-38.7c0-23.5,8.4-33.1,29.1-33.1h5.9v-20.8h-8.1
	c-34.7,0-51.1,16.3-51.1,50.6v32.8c0,23.5-8.1,31.3-32.1,31.3v28c24,0,32.1,7.8,32.1,31.3v32.8c0,34.3,16.3,50.6,51.1,50.6h8.1
	v-20.8h-5.9c-20.8,0-29.1-9.6-29.1-33.1v-38.7C254.9,386.2,244.3,375.1,222.7,372.9z M476.1,369.4v3.5
	c-21.6,2.2-32.2,13.3-32.2,34.5v38.7c0,23.5-8.4,33.1-29.1,33.1h-5.9v20.8h8.1c34.7,0,51.1-16.3,51.1-50.6v-32.8
	c0-23.5,8.1-31.3,32.1-31.3v-28c-24,0-32.1-7.8-32.1-31.3V293c0-34.3-16.4-50.6-51.1-50.6h-8.1v20.8h5.9c20.8,0,29.1,9.6,29.1,33.1
	V335C443.9,356.1,454.5,367.2,476.1,369.4z"/>
<path class="st2" d="M75.6,54.8c3.4,3.4,3.4,8.9,0,12.2c0,0,0,0,0,0l-54.5,54.5L75.6,176c3.4,3.4,3.4,8.9,0,12.3
	c-3.4,3.4-8.9,3.4-12.3,0L2.7,127.7c-3.4-3.4-3.4-8.9,0-12.2c0,0,0,0,0,0l60.6-60.6C66.7,51.5,72.2,51.5,75.6,54.8
	C75.6,54.8,75.6,54.8,75.6,54.8z M184.5,54.8c-3.4,3.4-3.4,8.9,0,12.2c0,0,0,0,0,0l54.5,54.5L184.5,176c-3.4,3.4-3.4,8.9,0,12.3
	c3.4,3.4,8.9,3.4,12.3,0l60.6-60.6c3.4-3.4,3.4-8.9,0-12.2c0,0,0,0,0,0l-60.6-60.6C193.4,51.5,187.9,51.5,184.5,54.8
	C184.5,54.8,184.5,54.8,184.5,54.8z M167.2,0.8c4.6,1.4,7.1,6.3,5.7,10.8l-69.3,225.1c-1.6,4.5-6.5,6.9-11,5.3
	c-4.3-1.5-6.7-6-5.5-10.4L156.4,6.5C157.8,1.9,162.6-0.6,167.2,0.8L167.2,0.8L167.2,0.8z"/>
<rect x="1048.6" y="119.2" class="st3" width="53.8" height="46.1"/>
<text transform="matrix(1 0 0 1 1048.6377 127.7397)" style="font-family:'ArialMT'; font-size:12px;">Lorem </text>
<text transform="matrix(1 0 0 1 1048.6377 142.1397)" style="font-family:'ArialMT'; font-size:12px;">ipsum </text>
<text transform="matrix(1 0 0 1 1048.6377 156.5397)" style="font-family:'ArialMT'; font-size:12px;">dolor sit </text>
</svg>
