<?xml version="1.0" encoding="utf-8"?>
<!-- Generator: Adobe Illustrator 24.2.1, SVG Export Plug-In . SVG Version: 6.00 Build 0)  -->
<svg version="1.1" id="Ebene_1" xmlns="http://www.w3.org/2000/svg" xmlns:xlink="http://www.w3.org/1999/xlink" x="0px" y="0px"
	 viewBox="0 0 500 500" style="enable-background:new 0 0 500 500;" xml:space="preserve">
<style type="text/css">
	.st0{fill:#353535;}
	.st1{fill-rule:evenodd;clip-rule:evenodd;fill:#FFFFFF;}
	.st2{fill:#FFFFFF;}
</style>
<rect x="-76.19" y="-31.95" class="st0" width="652" height="617"/>
<g id="Ebene_1_1_">
	<path class="st1" d="M468.64,374.9v-187.4c0-17.27-13.97-31.23-31.23-31.23H400.8c-24.86,0-48.65-9.9-66.23-27.47l-25.94-25.86
		c-5.83-5.83-13.74-9.13-22.02-9.13h-73.29c-8.29,0-16.19,3.3-22.1,9.13l-25.86,25.86c-17.57,17.57-41.44,27.47-66.23,27.47H62.6
		c-17.27,0-31.23,13.97-31.23,31.23v187.4c0,17.27,13.97,31.23,31.23,31.23h374.8C454.67,406.13,468.64,392.16,468.64,374.9z
		 M62.6,125.03c-34.53,0-62.47,27.93-62.47,62.47v187.4c0,34.53,27.93,62.47,62.47,62.47h374.8c34.53,0,62.47-27.93,62.47-62.47
		v-187.4c0-34.53-27.93-62.47-62.47-62.47H400.8c-16.58,0-32.46-6.6-44.2-18.26L330.73,80.9c-11.74-11.74-27.63-18.26-44.2-18.26
		h-73.21c-16.58,0-32.46,6.6-44.2,18.26l-25.86,25.86c-11.74,11.74-27.63,18.26-44.2,18.26L62.6,125.03L62.6,125.03z"/>
	<path class="st1" d="M250,343.66c43.13,0,78.12-34.99,78.12-78.12s-34.99-78.12-78.12-78.12s-78.12,34.99-78.12,78.12l0,0
		C171.95,308.67,206.87,343.66,250,343.66z M250,374.9c60.4,0,109.36-48.96,109.36-109.28S310.4,156.26,250,156.26
		s-109.36,48.96-109.36,109.28l0,0C140.72,325.94,189.6,374.9,250,374.9z"/>
	<path class="st2" d="M93.83,203.15c0,8.6-6.98,15.66-15.66,15.66s-15.66-6.98-15.66-15.66c0-8.6,6.98-15.66,15.66-15.66l0,0
		C86.85,187.49,93.83,194.48,93.83,203.15z"/>
</g>
</svg>
