<?xml version="1.0" encoding="utf-8"?>
<!-- Generator: Adobe Illustrator 24.2.1, SVG Export Plug-In . SVG Version: 6.00 Build 0)  -->
<svg version="1.1" id="Ebene_1" xmlns="http://www.w3.org/2000/svg" xmlns:xlink="http://www.w3.org/1999/xlink" x="0px" y="0px"
	 viewBox="0 0 500 500" style="enable-background:new 0 0 500 500;" xml:space="preserve">
<style type="text/css">
	.st0{fill-rule:evenodd;clip-rule:evenodd;fill:#353535;}
	.st1{fill:#353535;}
</style>
<g id="Ebene_1_1_">
	<path class="st0" d="M468.75,375V187.5c0-17.26-13.99-31.25-31.25-31.25h-36.62c-24.85-0.01-48.68-9.89-66.25-27.47l-25.94-25.87
		c-5.84-5.84-13.74-9.13-22-9.16h-73.31c-8.29,0-16.24,3.3-22.1,9.16l-25.87,25.87c-17.58,17.58-41.43,27.46-66.29,27.47H62.5
		c-17.26,0-31.25,13.99-31.25,31.25V375c0,17.26,13.99,31.25,31.25,31.25h375C454.76,406.25,468.75,392.26,468.75,375z M62.5,125
		C27.98,125,0,152.98,0,187.5V375c0,34.52,27.98,62.5,62.5,62.5h375c34.52,0,62.5-27.98,62.5-62.5V187.5
		c0-34.52-27.98-62.5-62.5-62.5h-36.62c-16.58,0-32.47-6.59-44.19-18.31l-25.88-25.88C319.09,69.09,303.2,62.5,286.62,62.5h-73.24
		c-16.58,0-32.47,6.59-44.19,18.31l-25.88,25.88C131.59,118.41,115.7,125,99.12,125H62.5z"/>
	<path class="st0" d="M250,343.75c43.15,0,78.13-34.98,78.13-78.13c0-43.15-34.98-78.13-78.13-78.13s-78.13,34.98-78.13,78.13
		c0,0,0,0.01,0,0.01C171.88,308.78,206.85,343.75,250,343.75z M250,375c60.41,0.01,109.38-48.96,109.39-109.37
		s-48.96-109.38-109.37-109.39S140.64,205.2,140.63,265.61c0,0.01,0,0.01,0,0.02C140.64,326.03,189.6,374.99,250,375z"/>
	<path class="st1" d="M93.75,203.13c0,8.63-7,15.63-15.63,15.63s-15.63-7-15.63-15.63c0-8.63,7-15.63,15.63-15.63c0,0,0.01,0,0.01,0
		C86.76,187.51,93.75,194.5,93.75,203.13z"/>
</g>
</svg>
