<?xml version="1.0" encoding="utf-8"?>
<!-- Generator: Adobe Illustrator 24.2.1, SVG Export Plug-In . SVG Version: 6.00 Build 0)  -->
<svg version="1.1" id="Ebene_1" xmlns="http://www.w3.org/2000/svg" xmlns:xlink="http://www.w3.org/1999/xlink" x="0px" y="0px"
	 viewBox="0 0 652 617" style="enable-background:new 0 0 652 617;" xml:space="preserve">
<style type="text/css">
	.st0{fill:#353535;}
	.st1{fill-rule:evenodd;clip-rule:evenodd;fill:#FFFFFF;}
	.st2{fill:#FFFFFF;}
</style>
<rect class="st0" width="652" height="617"/>
<g id="Ebene_1_1_">
	<path class="st1" d="M610.9,471.3V227.1c0-22.5-18.2-40.7-40.7-40.7h-47.7c-32.4,0-63.4-12.9-86.3-35.8l-33.8-33.7
		c-7.6-7.6-17.9-11.9-28.7-11.9h-95.5c-10.8,0-21.1,4.3-28.8,11.9l-33.7,33.7c-22.9,22.9-54,35.8-86.3,35.8H81.8
		c-22.5,0-40.7,18.2-40.7,40.7v244.2c0,22.5,18.2,40.7,40.7,40.7h488.4C592.7,512,610.9,493.8,610.9,471.3z M81.8,145.7
		c-45,0-81.4,36.4-81.4,81.4v244.2c0,45,36.4,81.4,81.4,81.4h488.4c45,0,81.4-36.4,81.4-81.4V227.1c0-45-36.4-81.4-81.4-81.4h-47.7
		c-21.6,0-42.3-8.6-57.6-23.8l-33.7-33.7c-15.3-15.3-36-23.8-57.6-23.8h-95.4c-21.6,0-42.3,8.6-57.6,23.8l-33.7,33.7
		c-15.3,15.3-36,23.8-57.6,23.8H81.8z"/>
	<path class="st1" d="M326,430.6c56.2,0,101.8-45.6,101.8-101.8c0-56.2-45.6-101.8-101.8-101.8s-101.8,45.6-101.8,101.8c0,0,0,0,0,0
		C224.3,385,269.8,430.6,326,430.6z M326,471.3c78.7,0,142.5-63.8,142.5-142.4S404.7,186.4,326,186.4s-142.5,63.8-142.5,142.4
		c0,0,0,0,0,0C183.6,407.5,247.3,471.3,326,471.3z"/>
	<path class="st2" d="M122.5,247.5c0,11.2-9.1,20.4-20.4,20.4s-20.4-9.1-20.4-20.4c0-11.2,9.1-20.4,20.4-20.4c0,0,0,0,0,0
		C113.4,227.1,122.5,236.2,122.5,247.5z"/>
</g>
</svg>
