<?xml version="1.0" encoding="utf-8"?>
<!-- Generator: Adobe Illustrator 24.2.1, SVG Export Plug-In . SVG Version: 6.00 Build 0)  -->
<svg version="1.1" id="Ebene_1" xmlns="http://www.w3.org/2000/svg" xmlns:xlink="http://www.w3.org/1999/xlink" x="0px" y="0px"
	 viewBox="0 0 500 500" style="enable-background:new 0 0 500 500;" xml:space="preserve">
<style type="text/css">
	.st0{fill:#353535;}
	.st1{fill-rule:evenodd;clip-rule:evenodd;fill:#353535;}
</style>
<path class="st0" d="M328.26,245.7c0,43.11-34.95,78.06-78.06,78.06s-78.06-34.95-78.06-78.06s34.95-78.06,78.06-78.06
	S328.26,202.59,328.26,245.7z"/>
<path class="st1" d="M62.86,105.19c-34.49,0-62.45,27.96-62.45,62.45v187.35c0,34.49,27.96,62.45,62.45,62.45h374.7
	c34.49,0,62.45-27.96,62.45-62.45V167.64c0-34.49-27.96-62.45-62.45-62.45h-36.6c-16.56,0-32.44-6.59-44.15-18.3l-25.85-25.85
	c-11.71-11.71-27.59-18.29-44.15-18.3h-73.19c-16.56,0-32.44,6.59-44.15,18.3L143.6,86.89c-11.71,11.71-27.59,18.29-44.15,18.3
	H62.86z M78.47,167.64c8.62,0,15.61-6.99,15.61-15.61s-6.99-15.61-15.61-15.61s-15.61,6.99-15.61,15.61S69.85,167.64,78.47,167.64z
	 M359.49,245.7c0,60.36-48.93,109.29-109.29,109.29S140.92,306.06,140.92,245.7s48.93-109.29,109.29-109.29
	S359.49,185.34,359.49,245.7z"/>
</svg>
