<svg id="Ebene_1" data-name="Ebene 1" xmlns="http://www.w3.org/2000/svg" viewBox="0 0 652 617"><defs><style>.cls-1{fill:#353535;}.cls-2,.cls-3{fill:#fff;}.cls-2{fill-rule:evenodd;}</style></defs><rect class="cls-1" width="652" height="617"/><path class="cls-2" d="M468.75,364.83V177.33a31.25,31.25,0,0,0-31.25-31.25H400.88a93.68,93.68,0,0,1-66.25-27.47L308.69,92.74a31.26,31.26,0,0,0-22-9.16H213.38a31.3,31.3,0,0,0-22.1,9.16l-25.87,25.87a93.71,93.71,0,0,1-66.29,27.47H62.5a31.25,31.25,0,0,0-31.25,31.25v187.5A31.25,31.25,0,0,0,62.5,396.08h375A31.25,31.25,0,0,0,468.75,364.83ZM62.5,114.83A62.5,62.5,0,0,0,0,177.33v187.5a62.5,62.5,0,0,0,62.5,62.5h375a62.5,62.5,0,0,0,62.5-62.5V177.33a62.5,62.5,0,0,0-62.5-62.5H400.88a62.49,62.49,0,0,1-44.19-18.31L330.81,70.65a62.5,62.5,0,0,0-44.19-18.32H213.38a62.5,62.5,0,0,0-44.19,18.32L143.31,96.52a62.49,62.49,0,0,1-44.19,18.31Z" transform="translate(98 48.74)"/><path class="cls-2" d="M250,318a78.13,78.13,0,1,0-78.12-78.13A78.13,78.13,0,0,0,250,318Zm0,31.25A109.38,109.38,0,1,0,140.63,239.83,109.38,109.38,0,0,0,250,349.21Z" transform="translate(98 48.74)"/><path class="cls-3" d="M93.75,239.83a15.63,15.63,0,1,1-15.62-15.62A15.63,15.63,0,0,1,93.75,239.83Z" transform="translate(98 48.74)"/></svg>