<svg xmlns="http://www.w3.org/2000/svg" viewBox="0 0 500 500"><defs><style>.cls-1{fill:#fff;}.cls-2,.cls-3{fill:#353535;}.cls-2{fill-rule:evenodd;}</style></defs><g id="Ebene_2" data-name="Ebene 2"><rect class="cls-1" width="500" height="500"/></g><g id="Ebene_1" data-name="Ebene 1"><path class="cls-2" d="M468.75,375V187.5a31.25,31.25,0,0,0-31.25-31.25H400.88a93.68,93.68,0,0,1-66.25-27.47l-25.94-25.87a31.26,31.26,0,0,0-22-9.16H213.38a31.26,31.26,0,0,0-22.1,9.16l-25.87,25.87a93.79,93.79,0,0,1-66.29,27.47H62.5A31.25,31.25,0,0,0,31.25,187.5V375A31.25,31.25,0,0,0,62.5,406.25h375A31.25,31.25,0,0,0,468.75,375ZM62.5,125A62.5,62.5,0,0,0,0,187.5V375a62.5,62.5,0,0,0,62.5,62.5h375A62.5,62.5,0,0,0,500,375V187.5A62.5,62.5,0,0,0,437.5,125H400.88a62.49,62.49,0,0,1-44.19-18.31L330.81,80.81A62.49,62.49,0,0,0,286.62,62.5H213.38a62.49,62.49,0,0,0-44.19,18.31l-25.88,25.88A62.49,62.49,0,0,1,99.12,125Z"/><path class="cls-2" d="M250,343.75a78.13,78.13,0,1,0-78.13-78.12A78.13,78.13,0,0,0,250,343.75ZM250,375A109.38,109.38,0,1,0,140.63,265.63,109.38,109.38,0,0,0,250,375Z"/><path class="cls-3" d="M93.75,203.13A15.63,15.63,0,1,1,78.13,187.5,15.63,15.63,0,0,1,93.75,203.13Z"/></g></svg>