<svg xmlns="http://www.w3.org/2000/svg" viewBox="0 0 500.5 500.19"><defs><style>.cls-1{fill:#353535;}.cls-2{fill:#fff;fill-rule:evenodd;}</style></defs><g id="Ebene_2" data-name="Ebene 2"><rect class="cls-1" y="0.01" width="500" height="500"/></g><g id="Ebene_1" data-name="Ebene 1"><path class="cls-2" d="M31.57,500.18A31.26,31.26,0,0,1,.31,468.92V31.25A31.27,31.27,0,0,1,31.57,0H469.24A31.27,31.27,0,0,1,500.5,31.25V468.92a31.26,31.26,0,0,1-31.26,31.26Zm0-125V125H219.14v250.1ZM281.67,125v250.1H469.24V125ZM31.57,468.92V406.4H94.1v62.52Zm93.79-62.52v62.52h62.52V406.4Zm93.78,62.52V406.4h62.53v62.52Zm93.79-62.52v62.52h62.52V406.4Zm93.79,62.52V406.4h62.52v62.52ZM31.57,31.25V93.78H94.1V31.25Zm93.79,62.53V31.25h62.52V93.78Zm93.78-62.53V93.78h62.53V31.25Zm93.79,62.53V31.25h62.52V93.78Zm93.79-62.53V93.78h62.52V31.25Z" transform="translate(0 0.01)"/></g></svg>