<svg xmlns="http://www.w3.org/2000/svg" viewBox="0 0 500.19 500.45"><defs><style>.cls-1{fill:#fff;}.cls-2{fill-rule:evenodd;}</style></defs><g id="Ebene_2" data-name="Ebene 2"><rect class="cls-1" x="0.19" y="0.45" width="500" height="500"/></g><g id="Ebene_1" data-name="Ebene 1"><path class="cls-2" d="M31.07,499.74A31.27,31.27,0,0,1-.19,468.48V30.81A31.26,31.26,0,0,1,31.07-.45H468.74A31.26,31.26,0,0,1,500,30.81V468.48a31.27,31.27,0,0,1-31.26,31.26Zm0-125V124.59H218.64v250.1Zm250.1-250.1v250.1H468.74V124.59ZM31.07,468.48V406H93.59v62.53ZM124.86,406v62.53h62.52V406Zm93.78,62.53V406h62.53v62.53ZM312.43,406v62.53H375V406Zm93.78,62.53V406h62.53v62.53ZM31.07,30.81V93.33H93.59V30.81Zm93.79,62.52V30.81h62.52V93.33Zm93.78-62.52V93.33h62.53V30.81Zm93.79,62.52V30.81H375V93.33Zm93.78-62.52V93.33h62.53V30.81Z" transform="translate(0.19 0.45)"/></g></svg>