<?xml version="1.0" encoding="utf-8"?>
<!-- Generator: Adobe Illustrator 24.2.1, SVG Export Plug-In . SVG Version: 6.00 Build 0)  -->
<svg version="1.1" id="Ebene_1" xmlns="http://www.w3.org/2000/svg" xmlns:xlink="http://www.w3.org/1999/xlink" x="0px" y="0px"
	 viewBox="0 0 500 500" style="enable-background:new 0 0 500 500;" xml:space="preserve">
<style type="text/css">
	.st0{fill-rule:evenodd;clip-rule:evenodd;fill:#353535;}
	.st1{fill-rule:evenodd;clip-rule:evenodd;fill:#FFFFFF;}
</style>
<rect x="-24" y="-19" class="st0" width="587" height="673"/>
<path class="st1" d="M287.14,120.2h182.45c8.4,0,15.2,6.81,15.2,15.2v182.45c0,8.4-6.81,15.2-15.2,15.2H287.14
	c-8.4,0-15.2-6.81-15.2-15.2V135.41C271.94,127.01,278.75,120.2,287.14,120.2z M469.59,105c16.79,0,30.41,13.61,30.41,30.41v182.45
	c0,16.79-13.61,30.41-30.41,30.41H287.14c-16.79,0-30.41-13.61-30.41-30.41V135.41c0-16.79,13.61-30.41,30.41-30.41H469.59z"/>
<path class="st1" d="M349.26,334.56V183.82h-13.7v150.74H349.26z M287.59,183.82h205.56v-13.7H287.59V183.82z M458.89,218.08
	c0-3.78-3.07-6.85-6.85-6.85h-68.52c-3.78,0-6.85,3.07-6.85,6.85s3.07,6.85,6.85,6.85h68.52
	C455.82,224.93,458.89,221.86,458.89,218.08z M458.89,259.19c0-3.78-3.07-6.85-6.85-6.85h-68.52c-3.78,0-6.85,3.07-6.85,6.85
	s3.07,6.85,6.85,6.85h68.52C455.82,266.04,458.89,262.97,458.89,259.19z M458.89,300.3c0-3.78-3.07-6.85-6.85-6.85h-68.52
	c-3.78,0-6.85,3.07-6.85,6.85c0,3.78,3.07,6.85,6.85,6.85h68.52C455.82,307.15,458.89,304.08,458.89,300.3z"/>
<path class="st1" d="M136.84,122.2c-5.98-20.26-34.69-20.26-40.67,0l-1.45,4.92c-3.31,11.23-15.09,17.65-26.31,14.34
	c-1.44-0.42-2.84-1-4.16-1.72l-4.49-2.46c-18.57-10.1-38.88,10.2-28.76,28.76l2.45,4.5c6.46,11.87,0.33,26.65-12.62,30.47
	l-4.92,1.45c-20.26,5.98-20.26,34.69,0,40.67l4.92,1.45c11.23,3.31,17.65,15.09,14.34,26.31c-0.42,1.44-1,2.84-1.72,4.16l-2.46,4.49
	c-10.1,18.57,10.2,38.88,28.76,28.76l4.5-2.45c10.28-5.6,23.15-1.81,28.75,8.47c0.72,1.32,1.3,2.71,1.72,4.16l1.45,4.92
	c5.98,20.26,34.69,20.26,40.67,0l1.45-4.92c3.31-11.23,15.09-17.65,26.31-14.34c1.44,0.42,2.84,1,4.16,1.72l4.49,2.46
	c18.57,10.1,38.88-10.2,28.76-28.76l-2.45-4.5c-5.6-10.28-1.81-23.15,8.47-28.75c1.32-0.72,2.71-1.3,4.16-1.72l4.92-1.45
	c20.26-5.98,20.26-34.69,0-40.67l-4.92-1.45c-11.23-3.31-17.65-15.09-14.34-26.31c0.42-1.44,1-2.84,1.72-4.16l2.46-4.49
	c10.1-18.57-10.2-38.88-28.76-28.76l-4.5,2.45c-10.28,5.6-23.15,1.81-28.75-8.47c-0.72-1.32-1.3-2.71-1.72-4.16
	C138.28,127.12,136.84,122.2,136.84,122.2z M116.5,265.2c23.42,0,42.41-18.99,42.41-42.41s-18.99-42.41-42.41-42.41
	c-23.41,0.01-42.39,19-42.38,42.41c0.01,23.4,18.98,42.37,42.38,42.38V265.2z"/>
</svg>
