<svg xmlns="http://www.w3.org/2000/svg" viewBox="0 0 500.2 500"><defs><style>.cls-1{fill:#fff;}.cls-2{fill:#353535;fill-rule:evenodd;}</style></defs><g id="Ebene_2" data-name="Ebene 2"><rect class="cls-1" x="0.2" width="500" height="500"/></g><g id="Ebene_1" data-name="Ebene 1"><path class="cls-2" d="M311.93,53H32.09A10.77,10.77,0,0,0,21.33,63.72V257.45a10.78,10.78,0,0,0,10.76,10.77H311.93a10.77,10.77,0,0,0,10.77-10.77V63.72A10.77,10.77,0,0,0,311.93,53ZM32.09,31.43A32.29,32.29,0,0,0-.2,63.72V257.45a32.29,32.29,0,0,0,32.29,32.29H311.93a32.28,32.28,0,0,0,32.29-32.27h0V63.72A32.28,32.28,0,0,0,312,31.43Z" transform="translate(0.2)"/><path class="cls-2" d="M64.38,106.77A10.78,10.78,0,0,1,75.14,96H268.88a10.77,10.77,0,0,1,0,21.53H75.14a10.76,10.76,0,0,1-10.76-10.76Zm0,53.81a10.76,10.76,0,0,1,10.76-10.76H268.88a10.77,10.77,0,0,1,0,21.53H75.14A10.77,10.77,0,0,1,64.38,160.58Zm0,53.82a10.76,10.76,0,0,1,10.76-10.76H204.3a10.76,10.76,0,0,1,0,21.52H75.14A10.76,10.76,0,0,1,64.38,214.4Z" transform="translate(0.2)"/><path class="cls-2" d="M255.8,255.07a30.51,30.51,0,0,1,30.51-30.51h183a30.51,30.51,0,0,1,30.49,30.51v183a30.52,30.52,0,0,1-30.5,30.5h-183a30.5,30.5,0,0,1-30.49-30.46Zm228.8,30.51h-61v45.76h61Zm0,61h-61v45.76h61Zm0,61h-61v45.76h45.7a15.27,15.27,0,0,0,15.26-15.25Zm-76.27,45.76V407.6h-61v45.76Zm-76.26,0V407.6h-61v30.51a15.26,15.26,0,0,0,15.26,15.25Zm-61-61h61V346.59h-61Zm0-61h61V285.58h-61Zm76.27-45.76v45.76h61V285.58Zm61,61h-61v45.76h61Z" transform="translate(0.2)"/><rect class="cls-1" x="126.09" y="162.73" width="234.67" height="175.13" rx="26.84"/><path class="cls-2" d="M121.49,188.63a30,30,0,0,1,30-30H331.7a30,30,0,0,1,30,30V308.75a30,30,0,0,1-30,30H151.52a30,30,0,0,1-30-30Zm30-15a15,15,0,0,0-15,15h0v3.26L241.59,255,346.7,191.89v-3.26a15,15,0,0,0-15-15H151.49Zm195.2,35.78-71.44,42.87,71.44,43.18v-86Zm-.51,103.28L260.7,261l-19.09,11.46L222.51,261,137,312.67a15,15,0,0,0,14.5,11.11H331.7a15,15,0,0,0,14.51-11.11Zm-209.7-17.23,71.44-43.18-71.44-42.87v86Z" transform="translate(0.2)"/></g></svg>