<?xml version="1.0" encoding="utf-8"?>
<!-- Generator: Adobe Illustrator 24.2.1, SVG Export Plug-In . SVG Version: 6.00 Build 0)  -->
<svg version="1.1" id="Ebene_1" xmlns="http://www.w3.org/2000/svg" xmlns:xlink="http://www.w3.org/1999/xlink" x="0px" y="0px"
	 viewBox="0 0 500 500" style="enable-background:new 0 0 500 500;" xml:space="preserve">
<style type="text/css">
	.st0{fill-rule:evenodd;clip-rule:evenodd;fill:#353535;}
	.st1{fill:#353535;}
</style>
<path class="st0" d="M224.08,142.05c0-2.79-2.26-5.05-5.05-5.05s-5.05,2.26-5.05,5.05v15.14c-13.94,0-25.23,11.3-25.23,25.23h-15.14
	c-2.79,0-5.05,2.26-5.05,5.05s2.26,5.05,5.05,5.05h15.14v10.09h-15.14c-2.79,0-5.05,2.26-5.05,5.05s2.26,5.05,5.05,5.05h15.14v10.09
	h-15.14c-2.79,0-5.05,2.26-5.05,5.05s2.26,5.05,5.05,5.05h15.14v10.09h-15.14c-2.79,0-5.05,2.26-5.05,5.05s2.26,5.05,5.05,5.05
	h15.14c0,13.94,11.3,25.23,25.23,25.23v15.14c0,2.79,2.26,5.05,5.05,5.05s5.05-2.26,5.05-5.05v-15.14h10.09v15.14
	c0,2.79,2.26,5.05,5.05,5.05s5.05-2.26,5.05-5.05v-15.14h10.09v15.14c0,2.79,2.26,5.05,5.05,5.05s5.05-2.26,5.05-5.05v-15.14h10.09
	v15.14c0,2.79,2.26,5.05,5.05,5.05s5.05-2.26,5.05-5.05v-15.14c13.94,0,25.23-11.3,25.23-25.23h15.14c2.79,0,5.05-2.26,5.05-5.05
	s-2.26-5.05-5.05-5.05h-15.14v-10.09h15.14c2.79,0,5.05-2.26,5.05-5.05s-2.26-5.05-5.05-5.05h-15.14V212.7h15.14
	c2.79,0,5.05-2.26,5.05-5.05s-2.26-5.05-5.05-5.05h-15.14v-10.09h15.14c2.79,0,5.05-2.26,5.05-5.05s-2.26-5.05-5.05-5.05h-15.14
	c0-13.94-11.3-25.23-25.23-25.23v-15.14c0-2.79-2.26-5.05-5.05-5.05s-5.05,2.26-5.05,5.05v15.14h-10.09v-15.14
	c0-2.79-2.26-5.05-5.05-5.05s-5.05,2.26-5.05,5.05v15.14h-10.09v-15.14c0-2.79-2.26-5.05-5.05-5.05s-5.05,2.26-5.05,5.05v15.14
	h-10.09V142.05z M234.17,187.47c-8.36,0-15.14,6.78-15.14,15.14v30.28c0,8.36,6.78,15.14,15.14,15.14h30.28
	c8.36,0,15.14-6.78,15.14-15.14v-30.28c0-8.36-6.78-15.14-15.14-15.14H234.17z M234.17,197.56c-2.79,0-5.05,2.26-5.05,5.05v30.28
	c0,2.79,2.26,5.05,5.05,5.05h30.28c2.79,0,5.05-2.26,5.05-5.05v-30.28c0-2.79-2.26-5.05-5.05-5.05H234.17z"/>
<path class="st1" d="M179.05,421.76c5.23-10.43,7.83-26.08,7.83-46.97h125.25c0,20.89,2.6,36.54,7.83,46.97h23.48
	c8.65,0,15.66,7.01,15.66,15.66s-7.01,15.66-15.66,15.66H155.56c-8.65,0-15.66-7.01-15.66-15.66s7.01-15.66,15.66-15.66H179.05z"/>
<path class="st0" d="M437.09,92.98H61.63c-10.18,0-15.72,2.44-18.85,4.54c-3.44,2.39-6.18,5.66-7.95,9.46
	c-2.67,5.51-4.2,11.51-4.51,17.63v187.56c0,10.18,2.44,15.72,4.54,18.85c2.19,3.29,5.32,5.89,9.46,7.95
	c5.28,2.56,11,4.08,16.85,4.48l0.78,0.03h375.44c10.18,0,15.72-2.44,18.85-4.54c3.44-2.39,6.18-5.66,7.95-9.46
	c2.56-5.28,4.08-11,4.48-16.85l0.03-0.78V124.29c0-10.18-2.44-15.72-4.54-18.85c-2.39-3.44-5.66-6.18-9.46-7.95
	c-5.51-2.67-11.51-4.2-17.63-4.51H437.09z M437.38,61.67H61.63C-1,61.67-1,124.29-1,124.29v187.88c0,62.63,62.63,62.63,62.63,62.63
	h375.75c62.63,0,62.63-62.63,62.63-62.63V124.29C500,61.67,437.38,61.67,437.38,61.67z"/>
</svg>
