<?xml version="1.0" encoding="utf-8"?>
<!-- Generator: Adobe Illustrator 24.2.1, SVG Export Plug-In . SVG Version: 6.00 Build 0)  -->
<svg version="1.1" id="Ebene_1" xmlns="http://www.w3.org/2000/svg" xmlns:xlink="http://www.w3.org/1999/xlink" x="0px" y="0px"
	 viewBox="0 0 500 500" style="enable-background:new 0 0 500 500;" xml:space="preserve">
<style type="text/css">
	.st0{fill-rule:evenodd;clip-rule:evenodd;fill:#353535;}
</style>
<path class="st0" d="M224.1,142.1c0-2.8-2.3-5.1-5.1-5.1s-5.1,2.3-5.1,5.1v15.1c-13.9,0-25.2,11.3-25.2,25.2h-15.1
	c-2.8,0-5.1,2.3-5.1,5.1s2.3,5.1,5.1,5.1h15.1v10.1h-15.1c-2.8,0-5.1,2.3-5.1,5.1s2.3,5.1,5.1,5.1h15.1v10.1h-15.1
	c-2.8,0-5.1,2.3-5.1,5.1s2.3,5.1,5.1,5.1h15.1V243h-15.1c-2.8,0-5.1,2.3-5.1,5.1s2.3,5.1,5.1,5.1h15.1c0,13.9,11.3,25.2,25.2,25.2
	v15.1c0,2.8,2.3,5,5.1,5s5.1-2.3,5.1-5v-15.1h10.1v15.1c0,2.8,2.3,5,5.1,5s5.1-2.3,5.1-5v-15.1h10.1v15.1c0,2.8,2.3,5,5.1,5
	s5-2.3,5-5v-15.1h10.1v15.1c0,2.8,2.3,5,5,5s5-2.3,5-5v-15.1c13.9,0,25.2-11.3,25.2-25.2H325c2.8,0,5-2.3,5-5.1s-2.3-5.1-5-5.1
	h-15.1v-10.1H325c2.8,0,5-2.3,5-5.1s-2.3-5.1-5-5.1h-15.1v-10.1H325c2.8,0,5-2.3,5-5.1s-2.3-5.1-5-5.1h-15.1v-10.1H325
	c2.8,0,5-2.3,5-5.1s-2.3-5.1-5-5.1h-15.1c0-13.9-11.3-25.2-25.2-25.2V142c0-2.8-2.3-5.1-5-5.1s-5,2.3-5,5.1v15.1h-10.1V142
	c0-2.8-2.3-5.1-5-5.1s-5.1,2.3-5.1,5.1v15.1h-10.1V142c0-2.8-2.3-5.1-5.1-5.1s-5.1,2.3-5.1,5.1v15.1h-10.1V142.1z M234.2,187.5
	c-8.4,0-15.1,6.8-15.1,15.1v30.3c0,8.4,6.8,15.1,15.1,15.1h30.3c8.4,0,15.1-6.8,15.1-15.1v-30.3c0-8.4-6.8-15.1-15.1-15.1H234.2z
	 M234.2,197.6c-2.8,0-5.1,2.3-5.1,5.1v30.3c0,2.8,2.3,5.1,5.1,5.1h30.3c2.8,0,5-2.3,5-5.1v-30.3c0-2.8-2.3-5.1-5-5.1H234.2z"/>
<path class="st0" d="M437.4,61.7H61.6C-1,61.7-1,124.3-1,124.3v187.9c0,62.6,62.6,62.6,62.6,62.6h125.2c0,20.9-2.6,36.5-7.8,47
	h-23.5c-8.7,0-15.7,7-15.7,15.7c0,8.7,7,15.7,15.7,15.7h187.9c8.7,0,15.7-7,15.7-15.7c0-8.6-7-15.7-15.7-15.7H320
	c-5.2-10.4-7.8-26.1-7.8-47h125.2c62.6,0,62.6-62.6,62.6-62.6V124.3C500,61.7,437.4,61.7,437.4,61.7z M468.7,311.8l0,0.8
	c-0.4,5.8-1.9,11.6-4.5,16.8c-1.8,3.8-4.5,7.1-8,9.5c-3.1,2.1-8.7,4.5-18.9,4.5H62l-0.8,0c-5.8-0.4-11.6-1.9-16.8-4.5
	c-4.1-2.1-7.3-4.7-9.5-8c-2.1-3.1-4.5-8.7-4.5-18.8V124.6c0.3-6.1,1.8-12.1,4.5-17.6c1.8-3.8,4.5-7.1,8-9.5
	c3.1-2.1,8.7-4.5,18.8-4.5h375.4c6.1,0.3,12.1,1.8,17.6,4.5c3.8,1.8,7.1,4.5,9.5,8c2.1,3.1,4.5,8.7,4.5,18.8V311.8z"/>
</svg>
