<svg id="Ebene_1" data-name="Ebene 1" xmlns="http://www.w3.org/2000/svg" viewBox="0 0 497.84 497.84"><defs><style>.cls-1{fill-rule:evenodd;}</style></defs><path d="M221.56,314.67q3.1-6.19,3.1-18.6h49.6q0,12.4,3.1,18.6h9.3a6.2,6.2,0,0,1,0,12.4h-74.4a6.2,6.2,0,0,1,0-12.4Z" transform="translate(-1.08 -1.08)"/><path class="cls-1" d="M323.74,184.48H175.06c-4,0-6.22,1-7.46,1.79a9.32,9.32,0,0,0-3.15,3.75,18,18,0,0,0-1.79,7v74.27c0,4,1,6.23,1.8,7.47a9.45,9.45,0,0,0,3.74,3.15,18.24,18.24,0,0,0,6.68,1.77h149c4,0,6.22-1,7.46-1.8a9.37,9.37,0,0,0,3.15-3.74,18.19,18.19,0,0,0,1.77-6.67l0-.31V196.88c0-4-1-6.23-1.8-7.47a9.4,9.4,0,0,0-3.75-3.15,18.19,18.19,0,0,0-7-1.78Zm.12-12.4H175.06c-24.8,0-24.8,24.8-24.8,24.8v74.39c0,24.8,24.8,24.8,24.8,24.8h148.8c24.79,0,24.79-24.8,24.79-24.8V196.88C348.65,172.08,323.86,172.08,323.86,172.08Z" transform="translate(-1.08 -1.08)"/><path class="cls-1" d="M109.41,41.7A27.09,27.09,0,1,1,82.33,14.62,27.09,27.09,0,0,1,109.41,41.7ZM82.33,82.33A40.63,40.63,0,1,0,41.7,41.7,40.63,40.63,0,0,0,82.33,82.33ZM163.57,150c0,13.54-13.54,13.54-13.54,13.54H14.62S1.08,163.57,1.08,150,14.62,95.87,82.33,95.87,163.57,136.49,163.57,150ZM150,150c0-3.33-2.08-13.35-11.26-22.53-8.83-8.83-25.45-18-56.44-18s-47.61,9.21-56.44,18c-9.18,9.18-11.24,19.2-11.27,22.53Z" transform="translate(-1.08 -1.08)"/><path class="cls-1" d="M149.76,377.05A27.09,27.09,0,1,1,122.67,350,27.08,27.08,0,0,1,149.76,377.05Zm-27.09,40.62a40.62,40.62,0,1,0-40.62-40.62A40.62,40.62,0,0,0,122.67,417.67Zm81.25,67.71c0,13.54-13.54,13.54-13.54,13.54H55s-13.54,0-13.54-13.54S55,431.21,122.67,431.21,203.92,471.84,203.92,485.38Zm-13.54-.05c0-3.34-2.09-13.36-11.27-22.54-8.83-8.83-25.44-18-56.44-18s-47.61,9.2-56.44,18C57.05,472,55,482,55,485.33Z" transform="translate(-1.08 -1.08)"/><path class="cls-1" d="M444.76,284.05A27.09,27.09,0,1,1,417.67,257,27.08,27.08,0,0,1,444.76,284.05Zm-27.09,40.62a40.62,40.62,0,1,0-40.62-40.62A40.62,40.62,0,0,0,417.67,324.67Zm81.25,67.71c0,13.54-13.54,13.54-13.54,13.54H350s-13.54,0-13.54-13.54,13.54-54.17,81.24-54.17S498.92,378.84,498.92,392.38Zm-13.54-.05c0-3.34-2.09-13.36-11.27-22.54-8.83-8.83-25.44-18-56.44-18s-47.61,9.2-56.44,18C352.05,379,350,389,350,392.33Z" transform="translate(-1.08 -1.08)"/></svg>