<?xml version="1.0" encoding="utf-8"?>
<!-- Generator: Adobe Illustrator 24.2.1, SVG Export Plug-In . SVG Version: 6.00 Build 0)  -->
<svg version="1.1" id="Ebene_1" xmlns="http://www.w3.org/2000/svg" xmlns:xlink="http://www.w3.org/1999/xlink" x="0px" y="0px"
	 viewBox="0 0 500 500" style="enable-background:new 0 0 500 500;" xml:space="preserve">
<style type="text/css">
	.st0{fill:#FFFFFF;}
	.st1{fill-rule:evenodd;clip-rule:evenodd;fill:#353535;}
</style>
<g id="Ebene_2_1_">
	<rect class="st0" width="500" height="500"/>
</g>
<g id="Ebene_1_1_">
	<path class="st1" d="M323.9,172.1H175.1c-24.8,0-24.8,24.8-24.8,24.8v74.4c0,24.8,24.8,24.8,24.8,24.8h49.6c0,8.3-1,14.5-3.1,18.6
		h-9.3c-3.4,0-6.2,2.8-6.2,6.2c0,3.4,2.8,6.2,6.2,6.2h74.4c3.4,0,6.2-2.8,6.2-6.2c0-3.4-2.8-6.2-6.2-6.2h-9.3
		c-2.1-4.1-3.1-10.3-3.1-18.6h49.6c24.8,0,24.8-24.8,24.8-24.8v-74.4C348.7,172.1,323.9,172.1,323.9,172.1z M336.3,271.5
		c-0.2,2.3-0.8,4.6-1.8,6.7c-0.7,1.5-1.8,2.8-3.2,3.7c-1.2,0.8-3.5,1.8-7.5,1.8h-149c-2.3-0.2-4.6-0.8-6.7-1.8
		c-1.5-0.7-2.8-1.8-3.7-3.1c-0.8-1.2-1.8-3.5-1.8-7.5V197c0.1-2.4,0.7-4.8,1.8-7c0.7-1.5,1.8-2.8,3.2-3.8c1.2-0.8,3.5-1.8,7.5-1.8
		h148.6c2.4,0.1,4.8,0.7,7,1.8c1.5,0.7,2.8,1.8,3.8,3.1c0.8,1.2,1.8,3.5,1.8,7.5V271.5z"/>
	<path class="st1" d="M109.4,41.7c0,15-12.1,27.1-27.1,27.1S55.2,56.7,55.2,41.7s12.1-27.1,27.1-27.1l0,0
		C97.3,14.6,109.4,26.7,109.4,41.7z M82.3,82.3c22.4,0,40.6-18.2,40.6-40.6S104.8,1.1,82.3,1.1S41.7,19.3,41.7,41.7l0,0l0,0
		C41.7,64.1,59.9,82.3,82.3,82.3z M163.6,150c0,13.5-13.5,13.5-13.5,13.5H14.6c0,0-13.5,0-13.5-13.5s13.5-54.1,81.3-54.1
		S163.6,136.5,163.6,150L163.6,150z M150,150c0-3.3-2.1-13.4-11.3-22.5c-8.8-8.8-25.4-18-56.4-18s-47.6,9.2-56.4,18
		c-9.2,9.2-11.2,19.2-11.3,22.5H150z"/>
	<path class="st1" d="M149.8,377.1c0,15-12.1,27.1-27,27.1c-15,0-27.1-12.1-27.1-27c0-15,12.1-27.1,27-27.1l0,0
		C137.6,350,149.7,362.1,149.8,377.1C149.8,377.1,149.8,377.1,149.8,377.1z M122.7,417.7c22.4,0,40.6-18.2,40.6-40.6
		c0-22.4-18.2-40.6-40.6-40.6c-22.4,0-40.6,18.2-40.6,40.6c0,0,0,0,0,0l0,0C82.1,399.5,100.3,417.7,122.7,417.7L122.7,417.7z
		 M203.9,485.4c0,13.5-13.5,13.5-13.5,13.5H55c0,0-13.5,0-13.5-13.5s13.5-54.2,81.2-54.2S203.9,471.9,203.9,485.4L203.9,485.4z
		 M190.4,485.4c0-3.3-2.1-13.4-11.3-22.5c-8.8-8.8-25.4-18-56.4-18s-47.6,9.2-56.4,18C57,472,55,482,55,485.4H190.4z"/>
	<path class="st1" d="M444.8,284.1c0,15-12.1,27.1-27.1,27.1c-15,0-27.1-12.1-27.1-27.1c0-15,12.1-27.1,27-27.1l0,0
		C432.6,257,444.7,269.1,444.8,284.1C444.8,284.1,444.8,284.1,444.8,284.1z M417.7,324.7c22.4,0,40.6-18.2,40.6-40.6
		c0-22.4-18.2-40.6-40.6-40.6s-40.6,18.2-40.6,40.6c0,0,0,0,0,0l0,0C377.1,306.5,395.3,324.7,417.7,324.7L417.7,324.7z M498.9,392.4
		c0,13.5-13.5,13.5-13.5,13.5H350c0,0-13.5,0-13.5-13.5s13.5-54.2,81.2-54.2S498.9,378.9,498.9,392.4L498.9,392.4z M485.4,392.4
		c0-3.3-2.1-13.4-11.3-22.5c-8.8-8.8-25.4-18-56.4-18s-47.6,9.2-56.4,18C352,379,350,389,350,392.4H485.4z"/>
</g>
</svg>
