<?xml version="1.0" encoding="utf-8"?>
<!-- Generator: Adobe Illustrator 24.2.1, SVG Export Plug-In . SVG Version: 6.00 Build 0)  -->
<svg version="1.1" id="Ebene_1" xmlns="http://www.w3.org/2000/svg" xmlns:xlink="http://www.w3.org/1999/xlink" x="0px" y="0px"
	 viewBox="0 0 4096 3112" style="enable-background:new 0 0 4096 3112;" xml:space="preserve">
<style type="text/css">
	.st0{fill:none;stroke:#353535;stroke-width:188;stroke-miterlimit:10;}
	.st1{fill:none;stroke:#C44536;stroke-width:188;stroke-miterlimit:10;}
	.st2{fill:#3C6E71;}
	.st3{fill:#353535;}
</style>
<rect x="298.14" y="558.63" class="st0" width="3381.58" height="2107.53"/>
<circle class="st1" cx="1988.93" cy="1612.39" r="709.38"/>
<rect x="196.93" y="1267.09" class="st2" width="3584" height="690.6"/>
<g>
	<path class="st3" d="M1401.25,1889.74h-145.71v-554.69h178.33l97.14,296.33l97.14-296.33h178.33v554.69h-144.84v-352.48
		l-74.7,232.39H1474.9l-73.65-230.77V1889.74z"/>
	<path class="st3" d="M2044.78,1781.66h204.11v108.08h-367.71v-554.69h359.64v108.08h-196.04v112.95h168.69v108.08h-168.69V1781.66z
		"/>
	<path class="st3" d="M2309.56,1335.05h275.65c91.18,0,137.12,35.7,137.12,107.11v340.47c0,71.4-45.94,107.11-137.12,107.11h-275.65
		V1335.05z M2558.91,1771.27v-318.08c0-12.66-7.72-18.82-23.5-18.82h-62.42v356.05h62.42
		C2551.19,1790.42,2558.91,1783.93,2558.91,1771.27z"/>
</g>
</svg>
